<svg width="59" height="59" viewBox="0 0 59 59" fill="none" xmlns="http://www.w3.org/2000/svg">
<g clip-path="url(#clip0_657_633)">
<path d="M1.01758 29.6263C1.08882 22.1529 4.10757 15.0099 9.41738 9.75043C14.7272 4.49099 21.8987 1.54047 29.3724 1.54047C36.846 1.54047 44.0175 4.49099 49.3273 9.75043C54.6372 15.0099 57.6559 22.1529 57.7271 29.6263C57.6559 37.0996 54.6372 44.2426 49.3273 49.5021C44.0175 54.7615 36.846 57.712 29.3724 57.712C21.8987 57.712 14.7272 54.7615 9.41738 49.5021C4.10757 44.2426 1.08882 37.0996 1.01758 29.6263ZM30.43 14.2329C13.3071 13.4317 7.87085 37.1012 23.6385 43.8154C24.9499 44.3745 26.3129 44.8305 26.6658 44.8305C27.3099 44.8305 27.3099 44.8305 27.3099 39.6828C27.3099 33.7493 27.4284 34.0095 24.7103 34.0095C23.1877 34.0095 23.1877 34.0095 23.1877 31.8196C23.1877 29.6296 23.1877 29.6296 25.2488 29.6296C27.3099 29.6296 27.3099 29.6296 27.3099 27.0635C27.3099 22.2765 28.7914 20.5889 33.1584 20.3983C36.1754 20.2669 36.585 20.5503 36.585 22.7763C36.585 24.2191 36.585 24.2191 35.3458 24.2191C32.9652 24.2191 31.9475 25.3837 31.9475 28.1121C31.9475 29.609 31.9475 29.609 33.9442 29.6837C35.9409 29.7584 35.9409 29.7584 36.0182 30.6885C36.1857 32.6672 35.5725 33.8008 34.2663 33.9296C31.981 34.1512 32.0866 33.8858 32.0016 39.6931C31.914 45.7425 31.7182 45.5313 35.7889 43.7587C50.575 37.3176 46.5223 14.9878 30.43 14.2329Z" fill="#F2F4F9" fill-opacity="0.988235"/>
<path d="M30.4298 14.2321C46.5221 14.987 50.5748 37.3169 35.7887 43.7579C31.718 45.5305 31.9138 45.7417 32.0014 39.6923C32.0864 33.8851 31.9808 34.1504 34.2661 33.9289C35.5723 33.8 36.1855 32.6664 36.018 30.6877C35.9407 29.7576 35.9407 29.7576 33.944 29.6829C31.9473 29.6082 31.9473 29.6082 31.9473 28.1113C31.9473 25.3829 32.965 24.2183 35.3456 24.2183C36.5848 24.2183 36.5848 24.2183 36.5848 22.7755C36.5848 20.5495 36.1752 20.2661 33.1582 20.3975C28.7912 20.5882 27.3097 22.2757 27.3097 27.0627C27.3097 29.6288 27.3097 29.6288 25.2486 29.6288C23.1874 29.6288 23.1874 29.6288 23.1874 31.8188C23.1874 34.0087 23.1874 34.0087 24.7101 34.0087C27.4282 34.0087 27.3097 33.7485 27.3097 39.682C27.3097 44.8297 27.3097 44.8297 26.6656 44.8297C26.3126 44.8297 24.9497 44.3737 23.6383 43.8146C7.87063 37.1004 13.3069 13.4309 30.4298 14.2321Z" fill="#1675EF"/>
</g>
<defs>
<clipPath id="clip0_657_633">
<rect width="59" height="59" fill="white"/>
</clipPath>
</defs>
</svg>
