<svg width="53" height="53" viewBox="0 0 53 53" fill="none" xmlns="http://www.w3.org/2000/svg">
<g clip-path="url(#clip0_657_626)">
<path d="M0.914062 26.6134C0.978056 19.9001 3.68981 13.4834 8.45965 8.75884C13.2295 4.03426 19.6717 1.38379 26.3853 1.38379C33.0989 1.38379 39.5411 4.03426 44.311 8.75884C49.0808 13.4834 51.7926 19.9001 51.8566 26.6134C51.7926 33.3267 49.0808 39.7434 44.311 44.4679C39.5411 49.1925 33.0989 51.843 26.3853 51.843C19.6717 51.843 13.2295 49.1925 8.45965 44.4679C3.68981 39.7434 0.978056 33.3267 0.914062 26.6134ZM33.3274 35.4112L34.4267 34.409C36.0931 32.8931 37.4794 29.8728 37.6576 27.3709C37.8659 24.4871 37.9516 24.5288 26.847 24.5334V28.9192L29.6637 28.9817C32.9362 29.0558 33.1469 29.3983 30.0872 32.4024L29.6822 32.5413C26.3008 33.6916 22.9843 32.7936 20.3667 28.9308V24.5334L21.0031 23.3184C22.3617 20.7239 25.7361 19.5158 28.9346 20.4809C30.2793 20.8859 30.2793 20.8859 31.8624 19.5945C33.8227 17.9952 33.7 17.611 30.8533 16.4122C26.0138 14.3755 19.8483 16.2108 16.8951 21.5247L16.2586 23.0869C15.3421 25.3365 15.3467 28.7318 16.8951 31.9395L17.6681 33.1546C20.3898 37.4316 26.8817 38.9985 33.3274 35.4112Z" fill="#F2F4F7" fill-opacity="0.988235"/>
<path d="M33.328 35.4104L31.9972 34.119C31.2659 33.4085 30.5368 32.7304 30.0878 32.4017C33.1475 29.3976 32.9369 29.0551 29.6643 28.981L26.8477 28.9185V24.5327C37.9522 24.5281 37.8666 24.4864 37.6583 27.3702C37.4801 29.8721 36.0937 32.8924 34.4274 34.4083L33.328 35.4104Z" fill="#4F8CF4"/>
<path d="M16.8945 21.524C19.8477 16.2101 26.0133 14.3748 30.8527 16.4115C33.6995 17.6104 33.8221 17.9945 31.8618 19.5938C30.2788 20.8852 30.2788 20.8852 28.9341 20.4802C25.7356 19.5151 22.3612 20.7232 21.0026 23.3177L20.3661 24.5328L16.8945 21.524Z" fill="#EF4235"/>
<path d="M16.8945 31.9389L20.3661 28.9302C22.9837 32.7929 26.3003 33.6909 29.6817 32.5407L30.0867 32.4018C30.5357 32.7304 31.2647 33.4086 31.9961 34.1191L33.3268 35.4105C26.8812 38.9979 20.3893 37.431 17.6675 33.154L16.8945 31.9389Z" fill="#26B244"/>
<path d="M16.8951 21.524L20.3667 24.5328V28.9302L16.8951 31.9389C15.3467 28.7311 15.3421 25.3359 16.2586 23.0863L16.8951 21.524Z" fill="#F9BA00"/>
</g>
<defs>
<clipPath id="clip0_657_626">
<rect width="53" height="53" fill="white"/>
</clipPath>
</defs>
</svg>
