<svg width="322" height="284" viewBox="0 0 322 284" fill="none" xmlns="http://www.w3.org/2000/svg">
<ellipse cx="161" cy="246" rx="161" ry="38" fill="#D9D9D9" fill-opacity="0.24"/>
<path d="M32.9984 257.987H90.4648L90.4648 130.927H32.9984L32.9984 257.987Z" fill="#5E7796"/>
<path d="M28.6955 132.426H94.8418V125.239L28.6955 125.239V132.426Z" fill="#3F5370"/>
<path d="M72.4289 161.839H86.8574V136.542H72.4289V161.839Z" fill="#3F5370"/>
<path d="M73.7329 160.521H85.625V137.901H73.7329V160.521Z" fill="#C5DFFA"/>
<path d="M82.4402 137.907L85.6257 141.046V143.335L80.1113 137.907H82.4402Z" fill="#FEFDF8"/>
<path d="M73.7324 147.732L85.6246 159.45V160.527H85.0691L73.7324 149.358V147.732Z" fill="#FEFDF8"/>
<path d="M79.0893 137.907L85.6276 144.345V147.424L75.9707 137.907H79.0893Z" fill="#FEFDF8"/>
<path d="M73.7324 153.607L80.7459 160.527H77.6273L73.7324 156.686V153.607Z" fill="#FEFDF8"/>
<path d="M73.7324 142.712L85.6246 154.431V158.105L73.7324 146.386V142.712Z" fill="#FEFDF8"/>
<path d="M54.5148 161.839H68.9434V136.542H54.5148V161.839Z" fill="#3F5370"/>
<path d="M55.8188 160.521H67.7109V137.901H55.8188V160.521Z" fill="#C5DFFA"/>
<path d="M64.5175 137.907L67.703 141.046V143.335L62.1953 137.907H64.5175Z" fill="#FEFDF8"/>
<path d="M55.8125 147.732L67.7046 159.45V160.527H67.1492L55.8125 149.358V147.732Z" fill="#FEFDF8"/>
<path d="M61.1741 137.907L67.7058 144.345V147.424L58.0488 137.907H61.1741Z" fill="#FEFDF8"/>
<path d="M55.8125 153.607L62.8327 160.527H59.7074L55.8125 156.686V153.607Z" fill="#FEFDF8"/>
<path d="M55.8125 142.712L67.7046 154.431V158.105L55.8125 146.386V142.712Z" fill="#FEFDF8"/>
<path d="M36.593 161.839H51.0215V136.542H36.593V161.839Z" fill="#3F5370"/>
<path d="M37.8969 160.521H49.7891V137.901H37.8969V160.521Z" fill="#C5DFFA"/>
<path d="M46.6035 137.907L49.789 141.046V143.335L44.2812 137.907H46.6035Z" fill="#FEFDF8"/>
<path d="M37.8965 147.732L49.7886 159.45V160.527H49.2332L37.8965 149.358V147.732Z" fill="#FEFDF8"/>
<path d="M43.2494 137.907L49.7878 144.345V147.424L40.1309 137.907H43.2494Z" fill="#FEFDF8"/>
<path d="M37.8965 153.607L44.91 160.527H41.7914L37.8965 156.686V153.607Z" fill="#FEFDF8"/>
<path d="M37.8965 142.712L49.7886 154.431V158.105L37.8965 146.386V142.712Z" fill="#FEFDF8"/>
<path d="M72.4406 191.586H86.8691V166.289H72.4406V191.586Z" fill="#3F5370"/>
<path d="M73.7407 190.268H85.6328V167.648H73.7407V190.268Z" fill="#C5DFFA"/>
<path d="M82.4472 167.648L85.6327 170.786V173.082L80.125 167.648H82.4472Z" fill="#FEFDF8"/>
<path d="M73.7402 177.479L85.6324 189.19V190.268H85.0769L73.7402 179.098V177.479Z" fill="#FEFDF8"/>
<path d="M79.0932 167.648L85.6315 174.092V177.164L75.9746 167.648H79.0932Z" fill="#FEFDF8"/>
<path d="M73.7402 183.354L80.7537 190.268H77.6351L73.7402 186.433V183.354Z" fill="#FEFDF8"/>
<path d="M73.7402 172.46L85.6324 184.171V187.852L73.7402 176.134V172.46Z" fill="#FEFDF8"/>
<path d="M54.5266 191.586H68.9551V166.289H54.5266V191.586Z" fill="#3F5370"/>
<path d="M55.8188 190.268H67.7109V167.648H55.8188V190.268Z" fill="#C5DFFA"/>
<path d="M64.5253 167.648L67.7109 170.786V173.082L62.2031 167.648H64.5253Z" fill="#FEFDF8"/>
<path d="M55.8242 177.479L67.7097 189.19V190.268H67.1542L55.8242 179.098V177.479Z" fill="#FEFDF8"/>
<path d="M61.18 167.648L67.7116 174.092V177.164L58.0547 167.648H61.18Z" fill="#FEFDF8"/>
<path d="M55.8242 183.354L62.8377 190.268H59.7191L55.8242 186.433V183.354Z" fill="#FEFDF8"/>
<path d="M55.8242 172.46L67.7097 184.171V187.852L55.8242 176.134V172.46Z" fill="#FEFDF8"/>
<path d="M36.6066 191.586H51.0352V166.289H36.6066V191.586Z" fill="#3F5370"/>
<path d="M37.9028 190.268H49.7949V167.648H37.9028V190.268Z" fill="#C5DFFA"/>
<path d="M46.6093 167.648L49.7948 170.786V173.082L44.2871 167.648H46.6093Z" fill="#FEFDF8"/>
<path d="M37.9023 177.479L49.7945 189.19V190.268H49.239L37.9023 179.098V177.479Z" fill="#FEFDF8"/>
<path d="M43.2573 167.648L49.7956 174.092V177.164L40.1387 167.648H43.2573Z" fill="#FEFDF8"/>
<path d="M37.9023 183.354L44.9225 190.268H41.7972L37.9023 186.433V183.354Z" fill="#FEFDF8"/>
<path d="M37.9023 172.46L49.7945 184.171V187.852L37.9023 176.134V172.46Z" fill="#FEFDF8"/>
<path d="M72.4406 221.333H86.8691V196.036H72.4406V221.333Z" fill="#3F5370"/>
<path d="M73.7329 220.008H85.625V197.388H73.7329V220.008Z" fill="#C5DFFA"/>
<path d="M82.4461 197.395L85.6249 200.534V202.822L80.1172 197.395H82.4461Z" fill="#FEFDF8"/>
<path d="M73.7402 207.219L85.6257 218.937V220.015H85.0702L73.7402 208.845V207.219Z" fill="#FEFDF8"/>
<path d="M79.096 197.395L85.6276 203.833V206.911L75.9707 197.395H79.096Z" fill="#FEFDF8"/>
<path d="M73.7402 213.102L80.7537 220.015H77.6351L73.7402 216.173V213.102Z" fill="#FEFDF8"/>
<path d="M73.7402 202.2L85.6257 213.918V217.592L73.7402 205.874V202.2Z" fill="#FEFDF8"/>
<path d="M54.5207 221.333H68.9492V196.036H54.5207V221.333Z" fill="#3F5370"/>
<path d="M55.8188 220.008H67.7109V197.388H55.8188V220.008Z" fill="#C5DFFA"/>
<path d="M64.5253 197.395L67.7109 200.534V202.822L62.2031 197.395H64.5253Z" fill="#FEFDF8"/>
<path d="M55.8203 207.219L67.7125 218.937V220.015H67.157L55.8203 208.845V207.219Z" fill="#FEFDF8"/>
<path d="M61.1733 197.395L67.7116 203.833V206.911L58.0547 197.395H61.1733Z" fill="#FEFDF8"/>
<path d="M55.8203 213.102L62.8405 220.015H59.7152L55.8203 216.173V213.102Z" fill="#FEFDF8"/>
<path d="M55.8203 202.2L67.7125 213.918V217.592L55.8203 205.874V202.2Z" fill="#FEFDF8"/>
<path d="M36.6066 221.333H51.0352V196.036H36.6066V221.333Z" fill="#3F5370"/>
<path d="M37.8969 220.008H49.7891V197.388H37.8969V220.008Z" fill="#C5DFFA"/>
<path d="M46.6035 197.395L49.7957 200.534V202.822L44.2812 197.395H46.6035Z" fill="#FEFDF8"/>
<path d="M37.9023 207.219L49.7945 218.937V220.015H49.239L37.9023 208.845V207.219Z" fill="#FEFDF8"/>
<path d="M43.2561 197.395L49.7945 203.833V206.911L40.1309 197.395H43.2561Z" fill="#FEFDF8"/>
<path d="M37.9023 213.102L44.9158 220.015H41.7972L37.9023 216.173V213.102Z" fill="#FEFDF8"/>
<path d="M37.9023 202.2L49.7945 213.918V217.592L37.9023 205.874V202.2Z" fill="#FEFDF8"/>
<path d="M72.4406 251.087H86.8691V225.79H72.4406V251.087Z" fill="#3F5370"/>
<path d="M73.7407 249.768H85.6328V227.149H73.7407V249.768Z" fill="#C5DFFA"/>
<path d="M82.4472 227.155L85.6327 230.294V232.583L80.125 227.155H82.4472Z" fill="#FEFDF8"/>
<path d="M73.7402 236.98L85.6324 248.698V249.769H85.0769L73.7402 238.606V236.98Z" fill="#FEFDF8"/>
<path d="M79.0932 227.155L85.6315 233.593V236.672L75.9746 227.155H79.0932Z" fill="#FEFDF8"/>
<path d="M73.7402 242.855L80.7537 249.769H77.6351L73.7402 245.934V242.855Z" fill="#FEFDF8"/>
<path d="M73.7402 231.96L85.6324 243.679V247.353L73.7402 235.634V231.96Z" fill="#FEFDF8"/>
<path d="M54.5266 251.087H68.9551V225.79H54.5266V251.087Z" fill="#3F5370"/>
<path d="M55.8188 249.768H67.7109V227.149H55.8188V249.768Z" fill="#C5DFFA"/>
<path d="M64.5253 227.155L67.7109 230.294V232.583L62.2031 227.155H64.5253Z" fill="#FEFDF8"/>
<path d="M55.8242 236.98L67.7097 248.698V249.769H67.1542L55.8242 238.606V236.98Z" fill="#FEFDF8"/>
<path d="M61.18 227.155L67.7116 233.593V236.672L58.0547 227.155H61.18Z" fill="#FEFDF8"/>
<path d="M55.8242 242.855L62.8377 249.769H59.7124L55.8242 245.934V242.855Z" fill="#FEFDF8"/>
<path d="M55.8242 231.96L67.7097 243.679V247.353L55.8242 235.634V231.96Z" fill="#FEFDF8"/>
<path d="M36.6066 251.087H51.0352V225.79H36.6066V251.087Z" fill="#3F5370"/>
<path d="M37.9028 249.768H49.7949V227.149H37.9028V249.768Z" fill="#C5DFFA"/>
<path d="M46.6093 227.155L49.7948 230.294V232.583L44.2871 227.155H46.6093Z" fill="#FEFDF8"/>
<path d="M37.9023 236.98L49.7945 248.698V249.769H49.239L37.9023 238.606V236.98Z" fill="#FEFDF8"/>
<path d="M43.2573 227.155L49.7956 233.593V236.672L40.1387 227.155H43.2573Z" fill="#FEFDF8"/>
<path d="M37.9023 242.855L44.9225 249.769H41.7972L37.9023 245.934V242.855Z" fill="#FEFDF8"/>
<path d="M37.9023 231.96L49.7945 243.679V247.353L37.9023 235.634V231.96Z" fill="#FEFDF8"/>
<path d="M220.409 257.933H279.615V101.776H220.409L220.409 257.933Z" fill="#5E7796"/>
<path d="M215.984 103.971L284.125 103.971V96.0741L215.984 96.0741V103.971Z" fill="#3F5370"/>
<path d="M218.862 121.699L281.207 121.699V119.37L218.862 119.37V121.699Z" fill="#3F5370"/>
<path d="M251.921 117.831H275.691V106.588H251.921V117.831Z" fill="#3F5370"/>
<path d="M253.2 116.599H274.475V107.759H253.2V116.599Z" fill="#C5DFFA"/>
<path d="M271.793 107.752L274.476 110.636V112.711L269.865 107.752H271.793Z" fill="#FEFDF8"/>
<path d="M256.425 107.752L264.644 116.599H262.716L254.498 107.752H256.425Z" fill="#FEFDF8"/>
<path d="M253.207 107.752H253.441L261.659 116.599H258.802L253.207 110.583V107.752Z" fill="#FEFDF8"/>
<path d="M264.437 107.752L272.662 116.599H270.735L262.51 107.752H264.437Z" fill="#FEFDF8"/>
<path d="M268.9 107.752L274.475 113.748V116.599H273.665L265.447 107.752H268.9Z" fill="#FEFDF8"/>
<path d="M224.356 117.831H248.127V106.588H224.356V117.831Z" fill="#3F5370"/>
<path d="M225.647 116.599H246.922V107.759H225.647V116.599Z" fill="#C5DFFA"/>
<path d="M244.24 107.752L246.923 110.636V112.711L242.312 107.752H244.24Z" fill="#FEFDF8"/>
<path d="M228.867 107.752L237.092 116.599H235.164L226.939 107.752H228.867Z" fill="#FEFDF8"/>
<path d="M225.648 107.752H225.883L234.107 116.599H231.243L225.648 110.583V107.752Z" fill="#FEFDF8"/>
<path d="M236.884 107.752L245.102 116.599H243.175L234.957 107.752H236.884Z" fill="#FEFDF8"/>
<path d="M241.349 107.752L246.923 113.748V116.599H246.113L237.889 107.752H241.349Z" fill="#FEFDF8"/>
<path d="M218.922 139.467H281.268V137.138H218.922V139.467Z" fill="#3F5370"/>
<path d="M251.975 135.605H275.746V124.362H251.975V135.605Z" fill="#3F5370"/>
<path d="M253.268 134.367H274.543V125.527H253.268V134.367Z" fill="#C5DFFA"/>
<path d="M271.859 125.527L274.543 128.411V130.486L269.932 125.527H271.859Z" fill="#FEFDF8"/>
<path d="M256.486 125.527L264.711 134.367H262.783L254.559 125.527H256.486Z" fill="#FEFDF8"/>
<path d="M253.266 125.527H253.5L261.725 134.367H258.86L253.266 128.351V125.527Z" fill="#FEFDF8"/>
<path d="M264.504 125.527L272.722 134.367H270.794L262.576 125.527H264.504Z" fill="#FEFDF8"/>
<path d="M268.968 125.527L274.542 131.516V134.367H273.733L265.508 125.527H268.968Z" fill="#FEFDF8"/>
<path d="M224.422 135.605H248.193V124.362H224.422V135.605Z" fill="#3F5370"/>
<path d="M225.716 134.367H246.99V125.527H225.716V134.367Z" fill="#C5DFFA"/>
<path d="M244.298 125.527L246.982 128.411V130.486L242.371 125.527H244.298Z" fill="#FEFDF8"/>
<path d="M228.927 125.527L237.152 134.367H235.225L227 125.527H228.927Z" fill="#FEFDF8"/>
<path d="M225.715 125.527H225.942L234.167 134.367H231.303L225.715 128.351V125.527Z" fill="#FEFDF8"/>
<path d="M236.945 125.527L245.17 134.367H243.242L235.018 125.527H236.945Z" fill="#FEFDF8"/>
<path d="M241.407 125.527L246.982 131.516V134.367H246.172L237.947 125.527H241.407Z" fill="#FEFDF8"/>
<path d="M218.981 157.235H281.326V154.906H218.981V157.235Z" fill="#3F5370"/>
<path d="M252.042 153.367H275.812V142.124H252.042V153.367Z" fill="#3F5370"/>
<path d="M253.327 152.135H274.602V143.295H253.327V152.135Z" fill="#C5DFFA"/>
<path d="M271.918 143.295L274.601 146.179V148.254L269.99 143.295H271.918Z" fill="#FEFDF8"/>
<path d="M256.547 143.295L264.771 152.135H262.844L254.619 143.295H256.547Z" fill="#FEFDF8"/>
<path d="M253.328 143.295H253.562L261.787 152.135H258.923L253.328 146.119V143.295Z" fill="#FEFDF8"/>
<path d="M264.562 143.295L272.787 152.135H270.86L262.635 143.295H264.562Z" fill="#FEFDF8"/>
<path d="M269.028 143.295L274.603 149.291V152.135H273.793L265.568 143.295H269.028Z" fill="#FEFDF8"/>
<path d="M224.489 153.367H248.26V142.124H224.489V153.367Z" fill="#3F5370"/>
<path d="M225.768 152.135H247.043V143.295H225.768V152.135Z" fill="#C5DFFA"/>
<path d="M244.368 143.295L247.045 146.179V148.254L242.434 143.295H244.368Z" fill="#FEFDF8"/>
<path d="M228.994 143.295L237.212 152.135H235.285L227.066 143.295H228.994Z" fill="#FEFDF8"/>
<path d="M225.775 143.295H226.01L234.228 152.135H231.37L225.775 146.119V143.295Z" fill="#FEFDF8"/>
<path d="M237.005 143.295L245.23 152.135H243.303L235.078 143.295H237.005Z" fill="#FEFDF8"/>
<path d="M241.469 143.295L247.043 149.291V152.135H246.234L238.016 143.295H241.469Z" fill="#FEFDF8"/>
<path d="M219.047 175.009H281.393V172.68H219.047V175.009Z" fill="#3F5370"/>
<path d="M252.102 171.141H275.873V159.898H252.102V171.141Z" fill="#3F5370"/>
<path d="M253.387 169.903H274.662V161.063H253.387V169.903Z" fill="#C5DFFA"/>
<path d="M271.978 161.063L274.662 163.947V166.022L270.051 161.063H271.978Z" fill="#FEFDF8"/>
<path d="M256.607 161.063L264.832 169.903H262.904L254.68 161.063H256.607Z" fill="#FEFDF8"/>
<path d="M253.395 161.063H253.622L261.847 169.903H258.983L253.395 163.893V161.063Z" fill="#FEFDF8"/>
<path d="M264.625 161.063L272.849 169.903H270.922L262.697 161.063H264.625Z" fill="#FEFDF8"/>
<path d="M269.089 161.063L274.663 167.059V169.903H273.854L265.629 161.063H269.089Z" fill="#FEFDF8"/>
<path d="M224.544 171.141H248.314V159.898H224.544V171.141Z" fill="#3F5370"/>
<path d="M225.837 169.903H247.111V161.063H225.837V169.903Z" fill="#C5DFFA"/>
<path d="M244.427 161.063L247.111 163.947V166.022L242.5 161.063H244.427Z" fill="#FEFDF8"/>
<path d="M229.054 161.063L237.279 169.903H235.352L227.127 161.063H229.054Z" fill="#FEFDF8"/>
<path d="M225.834 161.063H226.068L234.293 169.903H231.429L225.834 163.893V161.063Z" fill="#FEFDF8"/>
<path d="M237.064 161.063L245.289 169.903H243.362L235.137 161.063H237.064Z" fill="#FEFDF8"/>
<path d="M241.536 161.063L247.111 167.059V169.903H246.301L238.076 161.063H241.536Z" fill="#FEFDF8"/>
<path d="M219.112 192.777H281.457V190.448H219.112V192.777Z" fill="#3F5370"/>
<path d="M252.171 188.909H275.941V177.666H252.171V188.909Z" fill="#3F5370"/>
<path d="M253.448 187.678H274.723V178.837H253.448V187.678Z" fill="#C5DFFA"/>
<path d="M272.045 178.831L274.722 181.715V183.79L270.111 178.831H272.045Z" fill="#FEFDF8"/>
<path d="M256.673 178.831L264.892 187.678H262.964L254.746 178.831H256.673Z" fill="#FEFDF8"/>
<path d="M253.453 178.831H253.687L261.905 187.678H259.048L253.453 181.661V178.831Z" fill="#FEFDF8"/>
<path d="M264.683 178.831L272.908 187.678H270.981L262.756 178.831H264.683Z" fill="#FEFDF8"/>
<path d="M269.147 178.831L274.721 184.827V187.678H273.911L265.693 178.831H269.147Z" fill="#FEFDF8"/>
<path d="M224.612 188.909H248.383V177.666H224.612V188.909Z" fill="#3F5370"/>
<path d="M225.895 187.678H247.17V178.837H225.895V187.678Z" fill="#C5DFFA"/>
<path d="M244.486 178.831L247.17 181.715V183.79L242.559 178.831H244.486Z" fill="#FEFDF8"/>
<path d="M229.115 178.831L237.34 187.678H235.412L227.188 178.831H229.115Z" fill="#FEFDF8"/>
<path d="M225.896 178.831H226.131L234.355 187.678H231.491L225.896 181.661V178.831Z" fill="#FEFDF8"/>
<path d="M237.13 178.831L245.349 187.678H243.421L235.203 178.831H237.13Z" fill="#FEFDF8"/>
<path d="M241.597 178.831L247.171 184.827V187.678H246.361L238.137 178.831H241.597Z" fill="#FEFDF8"/>
<path d="M219.171 210.545H281.516V208.216H219.171V210.545Z" fill="#3F5370"/>
<path d="M252.223 206.684H275.994V195.441H252.223V206.684Z" fill="#3F5370"/>
<path d="M253.514 205.446H274.789V196.605H253.514V205.446Z" fill="#C5DFFA"/>
<path d="M272.105 196.599L274.789 199.49V201.557L270.178 196.599H272.105Z" fill="#FEFDF8"/>
<path d="M256.734 196.599L264.959 205.446H263.031L254.807 196.599H256.734Z" fill="#FEFDF8"/>
<path d="M253.514 196.599H253.748L261.973 205.446H259.108L253.514 199.429V196.599Z" fill="#FEFDF8"/>
<path d="M264.75 196.599L272.968 205.446H271.04L262.822 196.599H264.75Z" fill="#FEFDF8"/>
<path d="M269.216 196.599L274.79 202.595V205.446H273.981L265.756 196.599H269.216Z" fill="#FEFDF8"/>
<path d="M224.67 206.684H248.441V195.441H224.67V206.684Z" fill="#3F5370"/>
<path d="M225.956 205.446H247.23V196.605H225.956V205.446Z" fill="#C5DFFA"/>
<path d="M244.547 196.599L247.23 199.49V201.557L242.619 196.599H244.547Z" fill="#FEFDF8"/>
<path d="M229.175 196.599L237.4 205.446H235.473L227.248 196.599H229.175Z" fill="#FEFDF8"/>
<path d="M225.965 196.599H226.192L234.417 205.446H231.553L225.965 199.429V196.599Z" fill="#FEFDF8"/>
<path d="M237.193 196.599L245.418 205.446H243.49L235.266 196.599H237.193Z" fill="#FEFDF8"/>
<path d="M241.655 196.599L247.23 202.595V205.446H246.42L238.195 196.599H241.655Z" fill="#FEFDF8"/>
<path d="M219.229 228.313H281.574V225.984H219.229V228.313Z" fill="#3F5370"/>
<path d="M252.29 224.445H276.061V213.202H252.29V224.445Z" fill="#3F5370"/>
<path d="M253.581 223.214H274.855V214.373H253.581V223.214Z" fill="#C5DFFA"/>
<path d="M272.166 214.373L274.849 217.258V219.332L270.238 214.373H272.166Z" fill="#FEFDF8"/>
<path d="M256.795 214.373L265.019 223.214H263.092L254.867 214.373H256.795Z" fill="#FEFDF8"/>
<path d="M253.582 214.373H253.81L262.034 223.214H259.17L253.582 217.197V214.373Z" fill="#FEFDF8"/>
<path d="M264.812 214.373L273.037 223.214H271.11L262.885 214.373H264.812Z" fill="#FEFDF8"/>
<path d="M269.274 214.373L274.849 220.363V223.214H274.039L265.814 214.373H269.274Z" fill="#FEFDF8"/>
<path d="M224.739 224.445H248.51V213.202H224.739V224.445Z" fill="#3F5370"/>
<path d="M226.016 223.214H247.291V214.373H226.016V223.214Z" fill="#C5DFFA"/>
<path d="M244.614 214.373L247.297 217.258V219.332L242.68 214.373H244.614Z" fill="#FEFDF8"/>
<path d="M229.242 214.373L237.467 223.214H235.533L227.314 214.373H229.242Z" fill="#FEFDF8"/>
<path d="M226.023 214.373H226.258L234.476 223.214H231.618L226.023 217.197V214.373Z" fill="#FEFDF8"/>
<path d="M237.252 214.373L245.476 223.214H243.549L235.324 214.373H237.252Z" fill="#FEFDF8"/>
<path d="M241.715 214.373L247.296 220.363V223.214H246.48L238.262 214.373H241.715Z" fill="#FEFDF8"/>
<path d="M219.297 246.081H281.643V243.752H219.297V246.081Z" fill="#3F5370"/>
<path d="M252.35 242.213H276.121V230.97H252.35V242.213Z" fill="#3F5370"/>
<path d="M253.635 240.982H274.91V232.141H253.635V240.982Z" fill="#C5DFFA"/>
<path d="M272.226 232.141L274.91 235.025V237.1L270.299 232.141H272.226Z" fill="#FEFDF8"/>
<path d="M256.862 232.141L265.08 240.982H263.153L254.928 232.141H256.862Z" fill="#FEFDF8"/>
<path d="M253.643 232.141H253.87L262.095 240.982H259.231L253.643 234.972V232.141Z" fill="#FEFDF8"/>
<path d="M264.873 232.141L273.097 240.982H271.17L262.945 232.141H264.873Z" fill="#FEFDF8"/>
<path d="M269.334 232.141L274.909 238.137V240.982H274.099L265.881 232.141H269.334Z" fill="#FEFDF8"/>
<path d="M224.792 242.213H248.562V230.97H224.792V242.213Z" fill="#3F5370"/>
<path d="M226.083 240.982H247.357V232.141H226.083V240.982Z" fill="#C5DFFA"/>
<path d="M244.673 232.141L247.357 235.025V237.1L242.746 232.141H244.673Z" fill="#FEFDF8"/>
<path d="M229.302 232.141L237.527 240.982H235.6L227.375 232.141H229.302Z" fill="#FEFDF8"/>
<path d="M226.082 232.141H226.316L234.541 240.982H231.677L226.082 234.972V232.141Z" fill="#FEFDF8"/>
<path d="M237.32 232.141L245.538 240.982H243.611L235.393 232.141H237.32Z" fill="#FEFDF8"/>
<path d="M241.784 232.141L247.359 238.137V240.982H246.549L238.324 232.141H241.784Z" fill="#FEFDF8"/>
<path d="M81.7773 222.243H11L20.4361 208.317L71.8059 208.598L81.7773 222.243Z" fill="#304660"/>
<path d="M66.6882 222.243H26.0996L46.3972 202.555L66.6882 222.243Z" fill="#304660"/>
<path d="M81.8234 222.203H11.0059V258H81.8234V222.203Z" fill="#CE4A6A"/>
<path d="M63.4024 222.156H29.3789V257.993H63.4024V222.156Z" fill="#D84E68"/>
<path d="M66.5339 225.616H25.9453L46.2429 205.921L66.5339 225.616Z" fill="#D84E68"/>
<path d="M53.1743 228.119H39.6426L46.4151 220.088L53.1743 228.119Z" fill="#304660"/>
<path d="M50.7053 227.082H42.1191L46.4089 221.982L50.7053 227.082Z" fill="#C5DFFA"/>
<path d="M52.4994 233.901H40.2793V256.575H52.4994V233.901Z" fill="#304660"/>
<path d="M13.2828 249.159H27.3633L27.3633 233.888H13.2828L13.2828 249.159Z" fill="#304660"/>
<path d="M14.548 247.627H26.1523V235.213H14.548L14.548 247.627Z" fill="#C5DFFA"/>
<path d="M23.0402 235.213L26.1521 238.278V240.513L20.7715 235.213H23.0402Z" fill="#FEFDF8"/>
<path d="M19.7743 235.213L26.1521 241.497V244.502L16.7227 235.213H19.7743Z" fill="#FEFDF8"/>
<path d="M14.5488 247.627H15.807L14.5488 246.389V247.627Z" fill="#C5DFFA"/>
<path d="M14.5488 246.389L15.807 247.627H17.4131L14.5488 244.803V246.389Z" fill="#FEFDF8"/>
<path d="M14.5488 243.491L18.7449 247.627H22.3855L14.5488 239.904V243.491Z" fill="#FEFDF8"/>
<path d="M65.5953 249.166H79.6758V233.894H65.5953V249.166Z" fill="#304660"/>
<path d="M66.8624 247.634H78.4668V235.22H66.8624V247.634Z" fill="#C5DFFA"/>
<path d="M75.3527 235.22L78.4646 238.278V240.513L73.084 235.22H75.3527Z" fill="#FEFDF8"/>
<path d="M72.0888 235.22L78.4665 241.504V244.508L69.0371 235.22H72.0888Z" fill="#FEFDF8"/>
<path d="M66.8613 247.634H68.1195L66.8613 246.396V247.634Z" fill="#C5DFFA"/>
<path d="M66.8613 246.396L68.1195 247.634H69.7256L66.8613 244.81V246.396Z" fill="#FEFDF8"/>
<path d="M66.8613 243.498L71.0574 247.634H74.698L66.8613 239.911V243.498Z" fill="#FEFDF8"/>
<path opacity="0.2" d="M11.0059 222.203L11.0795 227.477L31.0626 224.244L46.4882 211.362L63.3996 225.67L82.2182 226.466L81.8167 222.203L63.4062 222.156L46.2406 205.921L29.423 222.237L11.0059 222.203Z" fill="#304660"/>
<path d="M223.814 222.384H294.17L284.788 206.764H237.413L223.814 222.384Z" fill="#2C435B"/>
<path d="M261.994 222.39H302.342L282.165 202.816L261.994 222.39Z" fill="#304660"/>
<path d="M223.766 257.926H294.162V222.344H223.766V257.926Z" fill="#C6466A"/>
<path d="M265.259 257.926H299.082V222.304H265.259V257.926Z" fill="#D84E68"/>
<path d="M282.319 206.162L299.043 222.39H265.602L282.319 206.162Z" fill="#D84E68"/>
<path d="M253.897 246.985C257.49 246.985 260.402 244.072 260.402 240.48C260.402 236.887 257.49 233.975 253.897 233.975C250.305 233.975 247.393 236.887 247.393 240.48C247.393 244.072 250.305 246.985 253.897 246.985Z" fill="#304660"/>
<path d="M253.897 245.854C256.872 245.854 259.284 243.442 259.284 240.466C259.284 237.491 256.872 235.079 253.897 235.079C250.922 235.079 248.51 237.491 248.51 240.466C248.51 243.442 250.922 245.854 253.897 245.854Z" fill="#C5DFFA"/>
<path d="M257.429 236.404L249.833 244.006C249.392 243.498 249.05 242.913 248.822 242.28L255.715 235.407C256.342 235.634 256.922 235.972 257.429 236.404Z" fill="#FEFDF8"/>
<path d="M248.504 240.466C248.507 240.222 248.527 239.978 248.564 239.737L253.168 235.133C253.41 235.098 253.654 235.08 253.898 235.079C254.258 235.077 254.616 235.113 254.969 235.186L248.611 241.537C248.541 241.184 248.505 240.826 248.504 240.466Z" fill="#FEFDF8"/>
<path d="M259.262 240.025L253.453 245.833C252.936 245.794 252.429 245.677 251.947 245.485L258.914 238.519C259.102 239.001 259.219 239.508 259.262 240.025Z" fill="#FEFDF8"/>
<path d="M234.173 246.978C237.765 246.978 240.678 244.065 240.678 240.473C240.678 236.88 237.765 233.968 234.173 233.968C230.58 233.968 227.668 236.88 227.668 240.473C227.668 244.065 230.58 246.978 234.173 246.978Z" fill="#304660"/>
<path d="M234.174 245.847C237.15 245.847 239.562 243.435 239.562 240.46C239.562 237.484 237.15 235.072 234.174 235.072C231.199 235.072 228.787 237.484 228.787 240.46C228.787 243.435 231.199 245.847 234.174 245.847Z" fill="#C5DFFA"/>
<path d="M237.708 236.397L230.112 243.993C229.672 243.487 229.329 242.904 229.102 242.273L235.988 235.407C236.617 235.628 237.2 235.964 237.708 236.397Z" fill="#FEFDF8"/>
<path d="M228.779 240.46C228.782 240.215 228.803 239.972 228.84 239.73L233.444 235.126C233.685 235.089 233.929 235.069 234.173 235.066C234.533 235.067 234.891 235.103 235.244 235.173L228.886 241.53C228.817 241.178 228.781 240.819 228.779 240.46Z" fill="#FEFDF8"/>
<path d="M239.541 240.018L233.732 245.827C233.216 245.784 232.709 245.667 232.227 245.479L239.193 238.512C239.378 238.996 239.495 239.502 239.541 240.018Z" fill="#FEFDF8"/>
<path d="M276.1 256.514H288.246V233.981H276.1V256.514Z" fill="#304660"/>
<path d="M282.203 229.163C285.426 229.163 288.038 226.55 288.038 223.327C288.038 220.104 285.426 217.492 282.203 217.492C278.98 217.492 276.367 220.104 276.367 223.327C276.367 226.55 278.98 229.163 282.203 229.163Z" fill="#304660"/>
<path d="M282.205 228.146C284.873 228.146 287.037 225.983 287.037 223.314C287.037 220.645 284.873 218.482 282.205 218.482C279.536 218.482 277.373 220.645 277.373 223.314C277.373 225.983 279.536 228.146 282.205 228.146Z" fill="#C5DFFA"/>
<path d="M285.375 219.673L278.556 226.493C278.163 226.034 277.857 225.508 277.652 224.94L283.829 218.77C284.397 218.97 284.922 219.276 285.375 219.673Z" fill="#FEFDF8"/>
<path d="M277.365 223.314C277.365 223.09 277.383 222.866 277.419 222.645L281.548 218.509C281.77 218.479 281.993 218.463 282.217 218.462C282.538 218.463 282.859 218.494 283.174 218.556L277.479 224.258C277.409 223.948 277.371 223.632 277.365 223.314Z" fill="#FEFDF8"/>
<path d="M287.015 222.919L281.815 228.132C281.356 228.093 280.905 227.987 280.477 227.818L286.727 221.567C286.885 222.003 286.982 222.458 287.015 222.919Z" fill="#FEFDF8"/>
<path d="M218.138 34.1974H94.6722C85.5874 34.1974 78.2227 41.5622 78.2227 50.647V241.537C78.2227 250.622 85.5874 257.987 94.6722 257.987H218.138C227.223 257.987 234.587 250.622 234.587 241.537V50.647C234.587 41.5622 227.223 34.1974 218.138 34.1974Z" fill="#2D3A51"/>
<path d="M218.615 41.6392H94.2666C89.2178 41.6392 85.125 45.7321 85.125 50.7808V241.396C85.125 246.445 89.2178 250.538 94.2666 250.538H218.615C223.664 250.538 227.757 246.445 227.757 241.396V50.7808C227.757 45.7321 223.664 41.6392 218.615 41.6392Z" fill="#FEFDF8"/>
<path d="M147.564 184.961H99.7813C95.8635 184.961 92.6875 188.137 92.6875 192.054V233.319C92.6875 237.237 95.8635 240.413 99.7813 240.413H147.564C151.482 240.413 154.658 237.237 154.658 233.319V192.054C154.658 188.137 151.482 184.961 147.564 184.961Z" fill="#D84E68"/>
<path d="M116.396 189.953H100.696C99.0473 189.953 97.7109 191.289 97.7109 192.938V232.576C97.7109 234.224 99.0473 235.561 100.696 235.561H116.396C118.044 235.561 119.38 234.224 119.38 232.576V192.938C119.38 191.289 118.044 189.953 116.396 189.953Z" fill="#BC405E"/>
<path d="M148.775 196.572H124.08V199.804H148.775V196.572Z" fill="#BC405E"/>
<path d="M141.808 201.678H124.08V204.91H141.808V201.678Z" fill="#BC405E"/>
<path d="M144.759 206.784H124.08V210.016H144.759V206.784Z" fill="#BC405E"/>
<path d="M148.775 217.003H124.08V220.236H148.775V217.003Z" fill="#BC405E"/>
<path d="M142.618 222.109H124.08V225.342H142.618V222.109Z" fill="#BC405E"/>
<path d="M146.278 227.222H124.08V230.455H146.278V227.222Z" fill="#BC405E"/>
<path d="M136.809 232.328H124.08V235.561H136.809V232.328Z" fill="#BC405E"/>
<path d="M213.388 184.927H165.606C161.688 184.927 158.512 188.103 158.512 192.021V206.222C158.512 210.14 161.688 213.316 165.606 213.316H213.388C217.306 213.316 220.482 210.14 220.482 206.222V192.021C220.482 188.103 217.306 184.927 213.388 184.927Z" fill="#D84E68"/>
<path d="M210.195 190.462H162.881V193.694H210.195V190.462Z" fill="#BC405E"/>
<path d="M196.844 195.568H162.881V198.8H196.844V195.568Z" fill="#BC405E"/>
<path d="M165.591 204.449L166.695 202.12L168.007 204.375L170.564 204.576L168.716 206.537L169.325 209.167L166.93 207.714L164.701 209.167L165.002 206.583L162.834 204.696L165.591 204.449Z" fill="#F7AC16"/>
<path d="M177.109 204.462L178.213 202.133L179.525 204.388L182.081 204.582L180.227 206.55L180.843 209.18L178.447 207.728L176.212 209.18L176.52 206.597L174.352 204.71L177.109 204.462Z" fill="#F7AC16"/>
<path d="M188.62 204.449L189.724 202.126L191.042 204.375L193.599 204.576L191.745 206.537L192.354 209.173L189.958 207.714L187.73 209.173L188.037 206.583L185.869 204.703L188.62 204.449Z" fill="#F7AC16"/>
<path d="M200.152 204.449L201.256 202.12L202.568 204.375L205.124 204.576L203.27 206.537L203.886 209.167L201.49 207.714L199.255 209.167L199.563 206.583L197.395 204.696L200.152 204.449Z" fill="#F7AC16"/>
<path d="M211.661 204.442L212.765 202.12L214.083 204.375L216.633 204.569L214.786 206.537L215.395 209.167L212.999 207.708L210.771 209.167L211.072 206.583L208.91 204.696L211.661 204.442Z" fill="#BC405E"/>
<path d="M213.402 219.6H165.619C161.701 219.6 158.525 222.776 158.525 226.694V233.312C158.525 237.23 161.701 240.406 165.619 240.406H213.402C217.32 240.406 220.496 237.23 220.496 233.312V226.694C220.496 222.776 217.32 219.6 213.402 219.6Z" fill="#D84E68"/>
<path d="M168.35 232.917L169.3 231.78C169.79 232.237 170.424 232.509 171.093 232.549C171.763 232.549 172.124 232.275 172.124 231.84C172.124 231.405 171.709 231.231 171.067 230.97L170.116 230.562C169.691 230.424 169.319 230.157 169.053 229.796C168.788 229.436 168.642 229.001 168.637 228.554C168.637 227.343 169.722 226.372 171.247 226.372C172.135 226.381 172.982 226.743 173.603 227.376L172.766 228.414C172.342 228.052 171.805 227.851 171.247 227.845C170.679 227.845 170.31 228.079 170.31 228.514C170.31 228.949 170.792 229.123 171.435 229.377L172.365 229.759C172.797 229.883 173.174 230.148 173.438 230.512C173.701 230.876 173.835 231.317 173.817 231.766C173.817 232.984 172.8 234.035 171.06 234.035C170.048 234.017 169.08 233.618 168.35 232.917Z" fill="#FEFDF8"/>
<path d="M175.629 226.52H180.213V227.912H177.282V229.384H179.778V230.776H177.282V232.462H180.327V233.848H175.642L175.629 226.52Z" fill="#FEFDF8"/>
<path d="M183.716 226.52H185.69L187.992 233.841H186.239L185.282 230.133C185.081 229.404 184.887 228.534 184.686 227.771H184.646C184.465 228.547 184.271 229.404 184.064 230.133L183.107 233.841H181.434L183.716 226.52ZM182.926 230.809H186.453V232.101H182.926V230.809Z" fill="#FEFDF8"/>
<path d="M189.262 226.52H191.898C193.451 226.52 194.723 227.062 194.723 228.802C194.723 230.542 193.451 231.211 191.898 231.211H190.915V233.841H189.262V226.52ZM191.758 229.866C192.635 229.866 193.096 229.498 193.096 228.775C193.096 228.052 192.635 227.811 191.758 227.811H190.915V229.866H191.758ZM191.591 230.742L192.735 229.685L195.071 233.814H193.224L191.591 230.742Z" fill="#FEFDF8"/>
<path d="M196.363 230.227C196.363 227.798 197.969 226.386 199.823 226.386C200.234 226.39 200.64 226.476 201.017 226.639C201.394 226.802 201.734 227.039 202.018 227.336L201.148 228.4C200.982 228.223 200.782 228.08 200.56 227.98C200.339 227.88 200.1 227.825 199.857 227.818C198.853 227.818 198.063 228.701 198.063 230.167C198.063 231.632 198.732 232.549 199.83 232.549C200.102 232.546 200.371 232.484 200.618 232.369C200.865 232.253 201.084 232.087 201.262 231.88L202.132 232.917C201.843 233.261 201.481 233.535 201.072 233.72C200.663 233.905 200.218 233.997 199.77 233.988C197.916 233.975 196.363 232.69 196.363 230.227Z" fill="#FEFDF8"/>
<path d="M203.811 226.52H205.464V229.344H207.993V226.52H209.646V233.841H207.993V230.789H205.464V233.841H203.811V226.52Z" fill="#FEFDF8"/>
<path d="M128.034 51.082H92.2773V96.2347H128.034V51.082Z" fill="#C8D5E8"/>
<path d="M113.768 131.49H92.6875V176.642H113.768V131.49Z" fill="#C8D5E8"/>
<path d="M137.323 131.496H116.242V176.649H137.323V131.496Z" fill="#C8D5E8"/>
<path d="M160.893 131.49H139.812V176.642H160.893V131.49Z" fill="#C8D5E8"/>
<path d="M186.68 51.0084H151.098V76.6665H186.68V51.0084Z" fill="#C8D5E8"/>
<path d="M220.638 131.516H167.869V163.284H220.638V131.516Z" fill="#C8D5E8"/>
<path d="M220.638 165.018H167.869V176.642H220.638V165.018Z" fill="#C8D5E8"/>
<path d="M220.677 51.0084H193.627V113.414H220.677V51.0084Z" fill="#C8D5E8"/>
<path d="M220.642 114.826H193.592V125.861H220.642V114.826Z" fill="#C8D5E8"/>
<path d="M186.667 78.2794H151.084V96.1611H186.667V78.2794Z" fill="#C8D5E8"/>
<path d="M144.632 102.224H92.2051V125.861H144.632V102.224Z" fill="#C8D5E8"/>
<path d="M186.666 102.224H146.051V125.861H186.666V102.224Z" fill="#C8D5E8"/>
<path d="M144.684 51.0552H130.59V96.1611H144.684V51.0552Z" fill="#C8D5E8"/>
<path d="M167.318 108.013C178.332 108.013 187.261 99.0843 187.261 88.0701C187.261 77.056 178.332 68.1272 167.318 68.1272C156.304 68.1272 147.375 77.056 147.375 88.0701C147.375 99.0843 156.304 108.013 167.318 108.013Z" fill="#D84E68"/>
<path d="M177.197 103.79H157.268L167.239 116.459L177.197 103.79Z" fill="#D84E68"/>
<path d="M178.092 84.5366H156.008V99.4336H178.092V84.5366Z" fill="#F9FDFE"/>
<path d="M181.099 86.464H153.359L167.232 73.4743L181.099 86.464Z" fill="#F9FDFE"/>
<path d="M174.546 87.8359H168.102V99.4269H174.546V87.8359Z" fill="#D84E68"/>
<path d="M165.249 87.8426H158.805V93.6983H165.249V87.8426Z" fill="#D84E68"/>
<path d="M102.885 157.522C107.35 157.522 110.969 153.903 110.969 149.438C110.969 144.973 107.35 141.354 102.885 141.354C98.4202 141.354 94.8008 144.973 94.8008 149.438C94.8008 153.903 98.4202 157.522 102.885 157.522Z" fill="#D84E68"/>
<path d="M106.895 155.809H98.8105L102.853 160.949L106.895 155.809Z" fill="#D84E68"/>
<path d="M107.255 147.999H98.3008V154.042H107.255V147.999Z" fill="#F9FDFE"/>
<path d="M108.474 148.782H97.2246L102.853 143.516L108.474 148.782Z" fill="#F9FDFE"/>
<path d="M105.809 149.344H103.199V154.042H105.809V149.344Z" fill="#D84E68"/>
<path d="M102.044 149.344H99.4336V151.72H102.044V149.344Z" fill="#D84E68"/>
<path d="M195.125 153.433C199.59 153.433 203.21 149.814 203.21 145.349C203.21 140.884 199.59 137.265 195.125 137.265C190.66 137.265 187.041 140.884 187.041 145.349C187.041 149.814 190.66 153.433 195.125 153.433Z" fill="#D84E68"/>
<path d="M199.133 151.72H191.049L195.091 156.86L199.133 151.72Z" fill="#D84E68"/>
<path d="M199.493 143.917H190.539V149.96H199.493V143.917Z" fill="#F9FDFE"/>
<path d="M200.712 144.693H189.469L195.09 139.427L200.712 144.693Z" fill="#F9FDFE"/>
<path d="M198.055 145.255H195.445V149.953H198.055V145.255Z" fill="#D84E68"/>
<path d="M194.282 145.255H191.672V147.631H194.282V145.255Z" fill="#D84E68"/>
<path d="M109.063 76.1579C113.528 76.1579 117.147 72.5385 117.147 68.0737C117.147 63.6089 113.528 59.9894 109.063 59.9894C104.598 59.9894 100.979 63.6089 100.979 68.0737C100.979 72.5385 104.598 76.1579 109.063 76.1579Z" fill="#D84E68"/>
<path d="M113.064 74.4447H104.986L109.028 79.5844L113.064 74.4447Z" fill="#D84E68"/>
<path d="M113.431 66.6415H104.477V72.6846H113.431V66.6415Z" fill="#F9FDFE"/>
<path d="M114.652 67.4178H103.402L109.031 62.151L114.652 67.4178Z" fill="#F9FDFE"/>
<path d="M111.987 67.98H109.377V72.6779H111.987V67.98Z" fill="#D84E68"/>
<path d="M108.219 67.98H105.609V70.3557H108.219V67.98Z" fill="#D84E68"/>
<path d="M197.408 117.938C191.882 124.242 184.612 128.765 176.515 130.937C168.418 133.108 159.86 132.83 151.921 130.137C143.983 127.444 137.021 122.457 131.917 115.808C126.813 109.158 123.795 101.144 123.245 92.7793C122.696 84.4146 124.639 76.0747 128.83 68.8146C133.02 61.5544 139.27 55.6999 146.788 51.9916C154.306 48.2833 162.755 46.8878 171.066 47.9814C179.377 49.075 187.177 52.6087 193.48 58.1356C201.919 65.5524 207.072 76.0136 207.808 87.2245C208.544 98.4354 204.804 109.481 197.408 117.938ZM139.125 66.8824C134.549 72.1039 131.624 78.5652 130.721 85.449C129.817 92.3329 130.976 99.33 134.049 105.556C137.123 111.781 141.973 116.955 147.988 120.424C154.002 123.892 160.91 125.499 167.838 125.041C174.766 124.584 181.402 122.082 186.908 117.852C192.413 113.622 196.541 107.855 198.769 101.279C200.996 94.703 201.224 87.6143 199.422 80.9092C197.621 74.2041 193.871 68.1839 188.648 63.6099C181.64 57.4919 172.493 54.4011 163.21 55.0145C153.928 55.6279 145.267 59.8955 139.125 66.8824Z" fill="#2D3A51"/>
<path d="M196.31 111.431L190.754 117.774L224.128 147.011L229.685 140.669L196.31 111.431Z" fill="#2D3A51"/>
<path d="M217.457 131.945L213.929 135.972C211.484 138.763 211.765 143.008 214.556 145.454L255.858 181.637C258.65 184.082 262.895 183.801 265.34 181.01L268.868 176.983C271.313 174.192 271.033 169.947 268.241 167.502L226.939 131.319C224.148 128.873 219.903 129.154 217.457 131.945Z" fill="#3C4D68"/>
<path d="M250.148 49.9175V59.7284L252.939 61.7361L250.597 63.0745L250.483 67.0899L253.16 68.9905L250.597 71.1052L250.376 77.0212L257.845 82.7096L257.403 50.2522L250.148 49.9175Z" fill="#2D3A51"/>
<path d="M253.996 50.975C261.651 50.975 267.856 44.7698 267.856 37.1153C267.856 29.4608 261.651 23.2556 253.996 23.2556C246.342 23.2556 240.137 29.4608 240.137 37.1153C240.137 44.7698 246.342 50.975 253.996 50.975Z" fill="#2D3A51"/>
<path d="M253.917 33.2405C256.164 33.2405 257.985 31.4187 257.985 29.1716C257.985 26.9244 256.164 25.1027 253.917 25.1027C251.669 25.1027 249.848 26.9244 249.848 29.1716C249.848 31.4187 251.669 33.2405 253.917 33.2405Z" fill="#C5DFFA"/>
<path d="M54.099 87.3674L50.9068 78.0853L47.6142 77.0948L49.3944 75.0671L48.1898 71.2324L45.0444 70.3089L46.7777 67.4714L45.0645 61.8097L36.1504 58.8651L47.1324 89.4086L54.099 87.3674Z" fill="#2D3A51"/>
<path d="M54.6272 114.578C62.2817 114.578 68.4869 108.373 68.4869 100.718C68.4869 93.064 62.2817 86.8588 54.6272 86.8588C46.9728 86.8588 40.7676 93.064 40.7676 100.718C40.7676 108.373 46.9728 114.578 54.6272 114.578Z" fill="#2D3A51"/>
<path d="M57.2896 112.276C59.5368 112.276 61.3585 110.454 61.3585 108.207C61.3585 105.96 59.5368 104.138 57.2896 104.138C55.0424 104.138 53.2207 105.96 53.2207 108.207C53.2207 110.454 55.0424 112.276 57.2896 112.276Z" fill="#C5DFFA"/>
<path d="M58.7969 44.2425L61.0187 36.8677L63.1937 44.1756L60.5971 51.9052L58.7969 44.2425Z" fill="white"/>
<path d="M61.3202 46.5112L53.9453 44.2961L61.2466 42.1144L68.9761 44.711L61.3202 46.5112Z" fill="white"/>
<path d="M267.059 74.0231L269.274 66.6482L271.455 73.9495L268.852 81.679L267.059 74.0231Z" fill="white"/>
<path d="M269.576 76.2918L262.201 74.0766L269.502 71.895L277.232 74.4916L269.576 76.2918Z" fill="white"/>
<path d="M106.828 17.3999L109.043 10.025L111.225 17.333L108.628 25.0625L106.828 17.3999Z" fill="white"/>
<path d="M109.344 19.6685L101.969 17.4534L109.27 15.2717L117 17.8683L109.344 19.6685Z" fill="white"/>
<path d="M188.479 21.2011L190.694 13.8262L192.875 21.1275L190.272 28.8637L188.479 21.2011Z" fill="white"/>
<path d="M190.994 23.4698L183.619 21.2546L190.92 19.0729L198.65 21.6695L190.994 23.4698Z" fill="white"/>
<path d="M151.504 4.28304L152.789 0L154.054 4.24289L152.548 8.7334L151.504 4.28304Z" fill="white"/>
<path d="M152.963 5.60145L148.68 4.31653L152.923 3.0517L157.413 4.55746L152.963 5.60145Z" fill="white"/>
</svg>
