<svg width="322" height="274" viewBox="0 0 322 274" fill="none" xmlns="http://www.w3.org/2000/svg">
<ellipse cx="161" cy="203.5" rx="161" ry="70.5" fill="#D9D9D9" fill-opacity="0.24"/>
<g clip-path="url(#clip0_0_1)">
<path d="M284.934 167.395L284.912 174.257L203.638 127.707L203.659 120.844L284.934 167.395Z" fill="#231F20"/>
<path d="M203.659 120.844L203.637 127.707L78.126 200.063L78.1476 193.2L203.659 120.844Z" fill="#58595B"/>
<path d="M284.912 168.617L159.401 240.973L78.126 194.423L203.637 122.066L284.912 168.617Z" fill="#1463B2"/>
<path d="M236.107 151.561V197.189L202.723 219.035V162.927L202.737 153.448L225.486 144.205L236.107 151.561Z" fill="url(#paint0_linear_0_1)"/>
<path d="M211.405 213.352L219.418 208.112V146.671L211.405 149.924V213.352Z" fill="url(#paint1_linear_0_1)"/>
<path d="M213.279 165.979V211.608L196.785 221.437L180.319 236.048L180.334 167.638L203.083 158.395L213.279 165.979Z" fill="url(#paint2_linear_0_1)"/>
<path d="M181.523 167.159V234.99L196.785 221.437V160.954L181.523 167.159Z" fill="url(#paint3_linear_0_1)"/>
<path d="M190.501 178.189V223.817L173.748 239.472L157.282 243.99L157.297 180.626L180.045 171.383L190.501 178.189Z" fill="url(#paint4_linear_0_1)"/>
<path d="M163.17 242.374L173.748 239.472L173.979 239.272V173.85L163.17 178.239V242.374Z" fill="url(#paint5_linear_0_1)"/>
<path d="M167.731 190.091V240.773L134.533 239.186V203.294L134.548 193.808L157.296 184.565L167.731 190.091Z" fill="url(#paint6_linear_0_1)"/>
<path d="M151.229 187.031L134.548 193.808L134.533 203.294V239.186L151.229 240.895V187.031Z" fill="url(#paint7_linear_0_1)"/>
<path d="M144.954 204.202V243.089L128.69 232.252L112.225 214.882L112.239 205.396L134.995 196.153L144.954 204.202Z" fill="url(#paint8_linear_0_1)"/>
<path d="M128.531 198.776L112.239 205.396L112.225 214.882L128.531 232.088V198.776Z" fill="url(#paint9_linear_0_1)"/>
<path d="M152.8 255.335C152.483 255.51 152.15 255.656 151.806 255.771L151.431 255.885C151.258 255.935 151.092 255.978 150.912 256.014L150.314 256.114C150.257 256.117 150.199 256.117 150.141 256.114C149.869 256.145 149.594 256.161 149.32 256.164H149.132C148.865 256.164 148.598 256.149 148.333 256.121H148.16C147.893 256.085 147.626 256.042 147.374 255.985H147.216C146.971 255.921 146.733 255.849 146.495 255.771H146.38C146.11 255.668 145.847 255.546 145.594 255.406L143.908 258.873L145.609 262.204C145.842 262.334 146.083 262.451 146.329 262.555H146.373H146.488L146.949 262.712L147.223 262.776H147.331H147.482C147.648 262.776 147.814 262.84 147.987 262.862H148.174H148.282C148.347 262.865 148.412 262.865 148.477 262.862H148.981H149.5H150.062H150.134H150.264C150.415 262.862 150.566 262.862 150.711 262.798L150.891 262.755C151.071 262.755 151.244 262.669 151.417 262.626C151.59 262.583 151.59 262.583 151.676 262.562L151.784 262.512C152.135 262.397 152.475 262.251 152.8 262.076L154.501 258.852L152.8 255.335Z" fill="url(#paint10_linear_0_1)"/>
<path d="M303.381 167.373V167.33C303.377 167.505 303.348 167.678 303.295 167.845V167.902C303.237 168.069 303.157 168.228 303.057 168.374C303.057 168.374 303.057 168.431 302.999 168.453C302.879 168.612 302.744 168.761 302.596 168.896C302.472 169.002 302.339 169.097 302.2 169.182C302.106 169.246 302.027 169.318 301.926 169.382L152.801 255.335V262.197L301.882 176.244L301.94 176.209C302.041 176.151 302.113 176.08 302.2 176.023C302.286 175.966 302.452 175.851 302.553 175.758C302.666 175.651 302.772 175.536 302.87 175.415C302.884 175.39 302.901 175.366 302.92 175.344L302.978 175.251C302.978 175.208 303.043 175.165 303.071 175.115C303.127 175.025 303.173 174.929 303.208 174.829C303.208 174.829 303.208 174.829 303.208 174.786C303.206 174.767 303.206 174.748 303.208 174.729L303.259 174.55C303.266 174.453 303.266 174.355 303.259 174.257V173.721V167.395L303.381 167.373Z" fill="#58595B"/>
<path d="M51.0896 201.192C50.6748 201.011 50.3168 200.722 50.0531 200.356C49.7894 199.99 49.6297 199.56 49.5908 199.112V205.975C49.6327 206.422 49.7935 206.85 50.0568 207.216C50.3202 207.581 50.6766 207.871 51.0896 208.055L145.63 262.197V255.335L51.0896 201.192Z" fill="#231F20"/>
<path d="M301.882 165.229L207.356 111.087C206.24 110.522 205.005 110.227 203.753 110.227C202.5 110.227 201.265 110.522 200.15 111.087L51.0753 197.003C49.0937 198.14 49.1009 199.991 51.0753 201.135L145.623 255.299C146.739 255.864 147.974 256.158 149.226 256.158C150.479 256.158 151.713 255.864 152.829 255.299L301.911 169.325C303.885 168.181 303.878 166.33 301.882 165.229ZM159.401 239.694L78.1549 193.143L203.666 120.787L284.934 167.373L159.401 239.694Z" fill="#414042"/>
<path d="M115.15 220.986C117.694 222.416 117.708 224.811 115.15 226.269C113.725 226.988 112.148 227.363 110.549 227.363C108.95 227.363 107.374 226.988 105.948 226.269C103.397 224.839 103.39 222.438 105.948 220.986C107.372 220.262 108.949 219.885 110.549 219.885C112.149 219.885 113.726 220.262 115.15 220.986Z" fill="url(#paint11_linear_0_1)"/>
<path d="M51.5439 201.45L145.616 255.335C146.722 255.84 147.916 256.129 149.133 256.185C150.399 256.121 151.643 255.833 152.808 255.335L302.178 169.182L152.916 255.685C151.783 256.277 150.521 256.584 149.241 256.578C147.986 256.537 146.756 256.222 145.638 255.656L51.5439 201.45Z" fill="white"/>
<path opacity="0.5" d="M106.316 221.258C107.741 220.539 109.318 220.164 110.917 220.164C112.516 220.164 114.092 220.539 115.517 221.258L115.748 221.408C115.561 221.258 115.361 221.124 115.15 221.008C113.726 220.284 112.149 219.906 110.549 219.906C108.949 219.906 107.372 220.284 105.948 221.008C103.498 222.437 103.441 224.675 105.739 226.14C103.822 224.682 104.003 222.588 106.316 221.258Z" fill="#A0A0A0"/>
<path d="M114.148 221.58C116.144 222.723 116.158 224.575 114.148 225.719C113.031 226.279 111.797 226.571 110.545 226.571C109.293 226.571 108.059 226.279 106.942 225.719C104.946 224.575 104.939 222.723 106.942 221.58C108.058 221.015 109.292 220.72 110.545 220.72C111.798 220.72 113.032 221.015 114.148 221.58Z" fill="url(#paint12_linear_0_1)"/>
<path d="M216.003 192.285C217.199 193 217.206 194.087 216.003 194.773L212.724 196.682L214.165 197.518L215.657 196.66L215.808 199.405L211.024 199.327L212.775 198.319L211.333 197.482L207.73 199.541C207.061 199.879 206.32 200.055 205.569 200.055C204.817 200.055 204.077 199.879 203.407 199.541C202.204 198.826 202.189 197.733 203.407 197.039C203.777 196.841 204.175 196.701 204.589 196.625C204.5 196.592 204.413 196.554 204.329 196.51C203.126 195.795 203.126 194.702 204.329 194.015C205.31 193.514 206.437 193.37 207.514 193.608C207.686 193.267 207.961 192.987 208.3 192.807C209.29 192.303 210.427 192.159 211.514 192.4C211.578 192.357 211.629 192.307 211.701 192.264C212.37 191.936 213.108 191.767 213.854 191.771C214.601 191.774 215.337 191.951 216.003 192.285Z" fill="white"/>
<path d="M257.199 172.656L254.857 174.007C253.834 174.023 252.818 174.179 251.838 174.472C251.556 173.806 251.045 173.262 250.397 172.935C249.408 172.393 248.305 172.087 247.176 172.041C247.197 171.857 247.265 171.681 247.374 171.53C247.482 171.378 247.627 171.257 247.795 171.176C248.422 170.904 249.105 170.782 249.788 170.819C250.472 170.856 251.137 171.052 251.73 171.391C252.515 171.841 252.854 172.427 252.724 172.935C254.367 172.256 256.241 172.105 257.199 172.656Z" fill="white"/>
<path d="M256.983 174.922L248.033 180.069C246.779 179.354 247.089 177.924 248.646 176.673C247.428 176.783 246.205 176.534 245.129 175.958C243.566 175.065 243.335 173.735 244.618 172.999C245.9 172.263 248.221 172.391 249.763 173.285C250.779 173.871 251.204 174.636 251.067 175.301C253.286 174.386 255.722 174.2 256.983 174.922Z" fill="white"/>
<path d="M242.989 174.422C243.098 174.825 243.294 175.199 243.564 175.519C243.834 175.839 244.172 176.096 244.553 176.273C245.38 176.728 246.292 177.013 247.233 177.109C246.775 177.579 246.497 178.194 246.448 178.846L244.106 180.197C243.14 179.647 243.385 178.575 244.574 177.603C243.639 177.682 242.702 177.485 241.879 177.038C240.69 176.359 240.51 175.344 241.49 174.779C241.953 174.541 242.468 174.419 242.989 174.422Z" fill="white"/>
<path d="M238.896 181.334C240.099 182.049 240.106 183.135 238.896 183.829L235.293 185.888L233.974 185.13L235.725 184.122L230.948 184.05L231.092 186.795L232.583 185.931L233.909 186.688L230.587 188.604C229.917 188.94 229.177 189.115 228.426 189.115C227.675 189.115 226.934 188.94 226.264 188.604C225.068 187.889 225.053 186.803 226.264 186.109C226.631 185.911 227.027 185.771 227.438 185.695C227.355 185.658 227.273 185.618 227.193 185.573C225.99 184.858 225.976 183.772 227.193 183.078C228.177 182.584 229.301 182.44 230.378 182.671C230.547 182.33 230.819 182.05 231.157 181.87C232.151 181.37 233.289 181.226 234.378 181.463L234.565 181.334C235.236 180.997 235.978 180.821 236.73 180.821C237.483 180.821 238.224 180.997 238.896 181.334Z" fill="white"/>
<path d="M229.932 45.8285L213.488 36.3426L219.246 18.5716L235.697 28.0504L229.932 45.8285Z" fill="url(#paint13_linear_0_1)"/>
<path d="M219.476 54.0707L203.025 44.5847L209.871 33.6619L226.322 43.1479L219.476 54.0707Z" fill="url(#paint14_linear_0_1)"/>
<path d="M219.786 162.705L203.335 153.219L203.025 44.5847L219.476 54.0707L219.786 162.705Z" fill="#349723"/>
<path d="M235.697 28.0504L236.05 153.391L219.786 162.705L219.477 54.0707L226.322 43.1479L229.932 45.8285L235.697 28.0504Z" fill="url(#paint15_linear_0_1)"/>
<path d="M197.016 175.744L180.565 166.265L180.334 86.2314L196.785 95.7174L197.016 175.744Z" fill="#91C518"/>
<path d="M196.785 95.7174L180.334 86.2314L186.164 71.4843L202.607 80.9702L196.785 95.7174Z" fill="url(#paint16_linear_0_1)"/>
<path d="M202.607 80.9702L186.163 71.4843L196.539 54.9428L212.983 64.4216L202.607 80.9702Z" fill="url(#paint17_linear_0_1)"/>
<path d="M212.984 64.4216L213.279 166.43L197.016 175.744L196.785 95.7174L202.607 80.9702L212.984 64.4216Z" fill="url(#paint18_linear_0_1)"/>
<path d="M183 130.609L166.549 121.13L173.863 102.63L190.314 112.109L183 130.609Z" fill="url(#paint19_linear_0_1)"/>
<path d="M174.086 136.478L157.643 126.992L166.549 121.13L183 130.609L174.086 136.478Z" fill="url(#paint20_linear_0_1)"/>
<path d="M174.238 188.79L157.787 179.311L157.643 126.992L174.086 136.478L174.238 188.79Z" fill="#F7A319"/>
<path d="M190.313 112.109L190.501 179.476L174.237 188.79L174.086 136.478L183 130.609L190.313 112.109Z" fill="url(#paint21_linear_0_1)"/>
<path d="M151.46 201.836L135.016 192.35L134.872 141.968L151.323 151.447L151.46 201.836Z" fill="#FF7F11"/>
<path d="M151.323 151.447L134.872 141.968L151.136 131.274L167.579 140.752L151.323 151.447Z" fill="url(#paint22_linear_0_1)"/>
<path d="M167.58 140.753L167.731 192.521L151.46 201.836L151.323 151.447L167.58 140.753Z" fill="url(#paint23_linear_0_1)"/>
<path d="M128.69 214.882L112.239 205.396L112.225 200.506L128.676 209.985L128.69 214.882Z" fill="#A42538"/>
<path d="M128.676 209.985L112.225 200.506L128.395 155.743L144.838 165.222L128.676 209.985Z" fill="url(#paint24_linear_0_1)"/>
<path d="M144.838 165.222L144.954 205.56L128.69 214.882L128.676 209.985L144.838 165.222Z" fill="url(#paint25_linear_0_1)"/>
<path d="M212.508 50.0533L219.108 53.9635L219.786 162.705L219.62 54.0707L226.321 43.1479L219.144 53.7276L212.508 50.0533Z" fill="white"/>
<path d="M229.55 45.5426L230.133 45.9787L235.696 28.0504L229.55 45.5426Z" fill="white"/>
<path d="M189.291 91.4141L196.655 95.746L197.016 175.744L196.879 95.6817L202.607 80.9702L212.984 64.4216L202.146 80.6986L196.67 95.4887L189.291 91.4141Z" fill="white"/>
<path d="M157.643 126.992L173.625 136.478L174.094 188.082L174.086 136.478L183.036 130.637L190.314 112.109L182.957 130.587L173.704 136.127L157.643 126.992Z" fill="white"/>
<path d="M134.995 142.061L150.596 151.246L151.46 201.836L151.439 151.547L167.58 140.752L150.653 151.018L134.995 142.061Z" fill="white"/>
<path d="M112.397 200.556L128.33 209.935L128.69 214.882L128.841 210.042L144.838 165.222L128.344 209.685L112.397 200.556Z" fill="white"/>
<path d="M229.781 23.1537L223.202 19.3579L220.291 17.192L226.87 20.9878L229.781 23.1537Z" fill="#3A9C28"/>
<path d="M198.551 60.0825L191.972 56.2867L217.697 15.269L224.275 19.0577L198.551 60.0825Z" fill="#7BD96B"/>
<path d="M179.808 107.319L173.229 103.531L191.972 56.2867L198.551 60.0825L179.808 107.319Z" fill="#6CD45A"/>
<path d="M221.479 16.9918L214.9 13.196L229.471 0L236.05 3.79581L221.479 16.9918Z" fill="#90DF82"/>
<path d="M224.275 19.0577L217.696 15.269L214.9 13.196L221.479 16.9918L224.275 19.0577Z" fill="#3A9C28"/>
<path d="M145.963 129.579L139.384 125.791L173.23 103.531L179.809 107.319L145.963 129.579Z" fill="#8FDE81"/>
<path d="M120.209 200.921L113.63 197.125L139.384 125.791L145.962 129.579L120.209 200.921Z" fill="#6CD45A"/>
<path d="M221.48 16.9918L236.05 3.79584L229.781 23.1538L226.87 20.9878L201.433 61.5694L182.186 110.286L148.47 132.46L123.725 201.007L120.209 200.921L145.963 129.58L179.809 107.319L198.551 60.0825L224.276 19.0577L221.48 16.9918Z" fill="#82DB72"/>
<path d="M236.049 3.79584L221.904 16.9918L224.592 19.0577L198.615 60.1469L180.117 107.512L146.041 129.758L120.208 200.921L145.191 129.251L139.383 125.791L145.191 129.251L179.808 107.319L197.981 59.8252L191.971 56.2867L198.046 59.6894L224.275 19.215L220.773 16.5844L236.049 3.79584Z" fill="white"/>
<path d="M219.785 162.705L236.049 153.391L235.862 87.8828L219.627 107.57L219.785 162.705Z" fill="url(#paint26_linear_0_1)"/>
<path d="M197.015 175.744L213.279 166.43L213.135 115.447L196.893 135.127L197.015 175.744Z" fill="url(#paint27_linear_0_1)"/>
<path d="M174.237 188.79L190.501 179.475L190.4 143.004L174.158 162.691L174.237 188.79Z" fill="url(#paint28_linear_0_1)"/>
<path d="M151.46 201.836L167.731 192.521L167.666 170.569L151.432 190.248L151.46 201.836Z" fill="url(#paint29_linear_0_1)"/>
<path d="M144.953 205.56L144.931 198.126L133.294 212.237L144.953 205.56Z" fill="url(#paint30_linear_0_1)"/>
<path d="M111.763 224.739C111.083 224.909 110.38 224.974 109.68 224.932L109.608 225.704C110.417 225.829 111.242 225.809 112.044 225.647L111.763 224.739Z" fill="#A0A0A0"/>
<path d="M113.723 223.646C113.509 223.906 113.248 224.124 112.952 224.289C112.702 224.428 112.439 224.543 112.167 224.632L112.772 225.447C113.022 225.362 113.263 225.254 113.493 225.125C113.957 224.887 114.325 224.498 114.538 224.024L113.723 223.646Z" fill="#A0A0A0"/>
<path d="M316.633 266.021H253.272C253.181 266.022 253.094 265.989 253.027 265.929L160.165 179.626C160.131 179.592 160.105 179.553 160.086 179.509C160.068 179.466 160.059 179.419 160.059 179.372C160.059 179.325 160.068 179.278 160.086 179.234C160.105 179.191 160.131 179.151 160.165 179.118C160.199 179.085 160.238 179.058 160.282 179.04C160.326 179.022 160.373 179.012 160.421 179.012C160.469 179.012 160.516 179.022 160.56 179.04C160.603 179.058 160.643 179.085 160.677 179.118L253.416 265.307H316.633C316.728 265.307 316.82 265.344 316.888 265.411C316.955 265.478 316.993 265.569 316.993 265.664C316.993 265.759 316.955 265.85 316.888 265.917C316.82 265.984 316.728 266.021 316.633 266.021Z" fill="url(#paint31_linear_0_1)"/>
<path d="M227.763 99.0986H227.655C227.61 99.0847 227.567 99.0621 227.531 99.0319C227.494 99.0017 227.464 98.9646 227.442 98.9227C227.419 98.8808 227.406 98.8349 227.402 98.7878C227.398 98.7407 227.403 98.6933 227.417 98.6482L252.933 20.0871C252.956 20.0153 253.001 19.9525 253.062 19.9076C253.123 19.8626 253.196 19.8379 253.272 19.8369H316.633C316.728 19.8369 316.82 19.8745 316.888 19.9415C316.955 20.0086 316.993 20.0995 316.993 20.1943C316.993 20.2891 316.955 20.38 316.888 20.447C316.82 20.514 316.728 20.5517 316.633 20.5517H253.539L228.109 98.8698C228.082 98.9381 228.034 98.9966 227.972 99.0374C227.91 99.0782 227.837 99.0996 227.763 99.0986Z" fill="url(#paint32_linear_0_1)"/>
<path d="M203.66 127.671C203.574 127.672 203.491 127.642 203.426 127.587C203.361 127.531 203.319 127.455 203.306 127.371C203.29 127.278 203.31 127.182 203.364 127.104C203.418 127.027 203.501 126.973 203.595 126.956L253.214 118.185H316.625C316.721 118.185 316.813 118.223 316.88 118.29C316.948 118.357 316.986 118.448 316.986 118.542C316.986 118.637 316.948 118.728 316.88 118.795C316.813 118.862 316.721 118.9 316.625 118.9H253.265L203.717 127.671H203.66Z" fill="url(#paint33_linear_0_1)"/>
<path d="M316.633 219.392H253.272C253.184 219.391 253.099 219.358 253.034 219.299L181.278 154.034C181.244 154.002 181.216 153.963 181.197 153.92C181.179 153.877 181.169 153.831 181.169 153.784C181.169 153.737 181.179 153.691 181.197 153.648C181.216 153.605 181.244 153.566 181.278 153.534C181.31 153.5 181.35 153.472 181.393 153.454C181.436 153.435 181.483 153.426 181.53 153.426C181.578 153.426 181.624 153.435 181.668 153.454C181.711 153.472 181.75 153.5 181.783 153.534L253.437 218.699H316.654C316.75 218.699 316.841 218.737 316.909 218.804C316.977 218.871 317.015 218.962 317.015 219.056C317.012 219.103 317 219.149 316.979 219.192C316.958 219.234 316.929 219.272 316.894 219.303C316.858 219.334 316.817 219.358 316.772 219.373C316.727 219.389 316.68 219.395 316.633 219.392Z" fill="url(#paint34_linear_0_1)"/>
<path d="M85.7213 265.307H22.3603C22.2647 265.307 22.1731 265.269 22.1055 265.202C22.0379 265.135 22 265.044 22 264.949C22 264.854 22.0379 264.764 22.1055 264.696C22.1731 264.629 22.2647 264.592 22.3603 264.592H85.5628L141.768 205.024C141.799 204.986 141.838 204.955 141.882 204.932C141.926 204.909 141.974 204.896 142.023 204.893C142.072 204.889 142.122 204.896 142.168 204.912C142.215 204.928 142.258 204.954 142.294 204.988C142.33 205.021 142.359 205.061 142.378 205.106C142.398 205.151 142.408 205.2 142.408 205.249C142.408 205.298 142.398 205.346 142.379 205.391C142.359 205.436 142.33 205.477 142.294 205.51L86.0167 265.199C85.9795 265.239 85.9333 265.27 85.882 265.288C85.8306 265.307 85.7755 265.313 85.7213 265.307Z" fill="url(#paint35_linear_0_1)"/>
<path d="M55.536 254.848H22V261.253H55.536V254.848Z" fill="#CC362B"/>
<path d="M81.0881 254.848H62.0791V261.253H81.0881V254.848Z" fill="#CC362B"/>
<path d="M277.757 255.563H257.912V261.968H277.757V255.563Z" fill="#FD8D10"/>
<path d="M316.993 255.563H284.293V261.968H316.993V255.563Z" fill="#FD8D10"/>
<path d="M195.676 205.088L195.611 205.038L195.517 204.995C193.923 204.167 192.163 203.703 190.365 203.637C188.026 203.478 185.689 203.974 183.62 205.067C181.848 206.089 180.961 207.504 181.199 208.948C181.361 209.598 181.666 210.204 182.092 210.723C182.519 211.242 183.055 211.662 183.664 211.951C185.274 212.818 187.064 213.307 188.895 213.38C191.234 213.536 193.569 213.041 195.64 211.951C197.412 210.929 198.299 209.513 198.068 208.069C197.911 207.43 197.616 206.832 197.203 206.317C196.79 205.802 196.269 205.383 195.676 205.088ZM197.189 207.819H196.396L195.524 207.876H195.323C194.977 207.912 194.602 207.969 194.285 208.033L193.99 208.119L193.456 208.241C193.262 208.076 193.053 207.912 192.837 207.762L192.779 207.726C192.592 207.59 192.397 207.462 192.188 207.333L195.294 205.546C196.186 206.046 196.861 206.856 197.189 207.819ZM188.945 206.496C188.83 206.611 188.708 206.725 188.578 206.832C188.43 206.955 188.273 207.067 188.11 207.168H188.066L185.249 205.56H185.357L185.631 205.603C185.955 205.646 186.286 205.696 186.596 205.76C186.713 205.774 186.828 205.796 186.942 205.825C187.324 205.903 187.663 205.989 188.066 206.089H188.124C188.434 206.175 188.729 206.275 189.017 206.375L188.945 206.496ZM189.162 207.168C189.327 207.04 189.471 206.904 189.616 206.768C189.846 206.861 190.091 206.947 190.336 207.054C190.567 207.161 190.776 207.276 190.985 207.39L189.543 208.205L188.513 207.612L188.578 207.569C188.777 207.449 188.967 207.315 189.147 207.168H189.162ZM188.037 207.883L189.068 208.469L187.627 209.284C187.432 209.163 187.23 209.041 187.043 208.906L186.539 208.498H186.604C186.849 208.412 187.072 208.334 187.324 208.241H187.375C187.583 208.155 187.778 208.062 187.973 207.962L188.037 207.883ZM189.666 208.834L190.689 209.42L190.632 209.47C190.463 209.576 190.299 209.691 190.142 209.813C189.982 209.935 189.831 210.066 189.688 210.207V210.249L188.967 209.956L188.311 209.62L189.666 208.834ZM190.387 210.492L190.754 210.149C190.903 210.028 191.059 209.915 191.222 209.813L191.273 209.778L194.09 211.393H193.99L193.708 211.35C193.384 211.307 193.06 211.257 192.743 211.193L192.397 211.129C192.022 211.05 191.676 210.964 191.287 210.864H191.215C190.905 210.778 190.617 210.671 190.322 210.578L190.387 210.492ZM191.302 209.063L190.271 208.469L191.712 207.662C191.914 207.783 192.116 207.905 192.303 208.033C192.476 208.162 192.642 208.305 192.801 208.434H192.743C192.505 208.512 192.267 208.598 192.022 208.691H191.965C191.763 208.774 191.566 208.867 191.374 208.97L191.302 209.063ZM190.25 205.975C190.29 205.925 190.326 205.873 190.358 205.817C190.469 205.63 190.558 205.431 190.624 205.224V205.11C190.675 204.944 190.709 204.774 190.725 204.602C190.725 204.538 190.725 204.466 190.725 204.395C190.725 204.323 190.725 204.23 190.725 204.152C192.099 204.255 193.439 204.619 194.674 205.224L191.576 207.011C191.331 206.875 191.064 206.747 190.805 206.625H190.74C190.502 206.518 190.25 206.411 190.019 206.318C190.127 206.182 190.178 206.075 190.25 205.975ZM189.933 204.102C189.933 204.195 189.933 204.295 189.933 204.395V204.545C189.912 204.732 189.873 204.916 189.817 205.095V205.181C189.759 205.337 189.692 205.49 189.616 205.639L189.508 205.81C189.459 205.882 189.406 205.952 189.349 206.018L188.679 205.817L188.369 205.724C187.951 205.61 187.519 205.51 187.079 205.417L186.798 205.374C186.452 205.303 186.078 205.246 185.746 205.195L185.278 205.145L184.78 205.088C186.398 204.368 188.161 204.028 189.933 204.095V204.102ZM187.439 207.569H187.375C187.187 207.662 187 207.755 186.798 207.84H186.755C186.56 207.919 186.366 207.991 186.164 208.055H186.092C185.919 207.883 185.739 207.719 185.587 207.54V207.504C185.42 207.301 185.264 207.088 185.119 206.868C185.076 206.797 185.047 206.732 185.004 206.668C184.9 206.489 184.808 206.302 184.73 206.11L184.658 205.953V205.889L187.439 207.569ZM183.707 205.703C183.734 205.8 183.768 205.896 183.808 205.989C183.831 206.08 183.863 206.168 183.901 206.253C183.987 206.462 184.085 206.665 184.197 206.861L184.283 207.025C184.446 207.276 184.627 207.515 184.824 207.74C184.874 207.805 184.932 207.862 184.989 207.926C185.047 207.991 185.213 208.184 185.343 208.305C185.224 208.34 185.104 208.369 184.982 208.391L184.672 208.455C184.413 208.505 184.154 208.548 183.88 208.577H183.728C183.411 208.577 183.094 208.634 182.77 208.641H181.985C181.988 208.044 182.149 207.458 182.451 206.942C182.754 206.425 183.186 205.996 183.707 205.696V205.703ZM182.078 209.163H182.871C183.159 209.163 183.447 209.163 183.736 209.106H183.937C184.283 209.063 184.658 209.013 184.982 208.948L185.256 208.884C185.436 208.848 185.616 208.813 185.796 208.763C185.991 208.934 186.2 209.091 186.409 209.249H186.467C186.654 209.377 186.849 209.513 187.057 209.635L183.952 211.422C183.068 210.92 182.401 210.114 182.078 209.156V209.163ZM189.01 211.007C189.01 211.064 188.931 211.114 188.902 211.172C188.794 211.36 188.705 211.559 188.636 211.765V211.879C188.588 212.043 188.554 212.21 188.535 212.38C188.535 212.451 188.535 212.523 188.535 212.594C188.535 212.666 188.535 212.751 188.535 212.837C187.16 212.731 185.817 212.367 184.579 211.765L187.677 209.978C187.901 210.099 188.131 210.207 188.398 210.321H188.455C188.722 210.45 188.996 210.564 189.291 210.678C189.19 210.771 189.096 210.871 189.01 210.979V211.007ZM189.327 212.887C189.327 212.787 189.327 212.694 189.327 212.594V212.408C189.35 212.221 189.391 212.037 189.45 211.858V211.765C189.505 211.61 189.572 211.459 189.652 211.315L189.76 211.136L189.911 210.929L190.574 211.129L190.898 211.229C191.316 211.343 191.741 211.443 192.181 211.529L192.469 211.586L193.521 211.751L193.982 211.808L194.487 211.865C192.866 212.586 191.102 212.933 189.327 212.88V212.887ZM191.828 209.42H191.885L192.462 209.156H192.505C192.707 209.077 192.894 209.006 193.096 208.941H193.168C193.347 209.102 193.516 209.274 193.673 209.456C193.837 209.66 193.991 209.872 194.134 210.092C194.176 210.156 194.215 210.223 194.249 210.292C194.356 210.468 194.448 210.652 194.523 210.843C194.55 210.896 194.574 210.951 194.595 211.007V211.064L191.828 209.42ZM195.56 211.279C195.56 211.186 195.488 211.093 195.452 210.993L195.366 210.728C195.277 210.523 195.176 210.322 195.063 210.128C195.063 210.071 195.013 210.014 194.977 209.963C194.818 209.712 194.64 209.473 194.443 209.249C194.393 209.191 194.328 209.134 194.278 209.07C194.227 209.006 194.054 208.813 193.925 208.691L194.285 208.598L194.595 208.534C194.854 208.491 195.106 208.448 195.38 208.419H195.532C195.849 208.419 196.173 208.369 196.49 208.362H197.275C197.267 208.953 197.105 209.531 196.805 210.041C196.504 210.551 196.075 210.975 195.56 211.272V211.279Z" fill="white"/>
<path d="M286.764 208.72H258.272V215.125H286.764V208.72Z" fill="#FAC442"/>
<path d="M316.993 208.72H292.939V215.125H316.993V208.72Z" fill="#FAC442"/>
<path d="M280.978 107.705H261.133V114.11H280.978V107.705Z" fill="#BBD209"/>
<path d="M316.993 107.705H284.293V114.11H316.993V107.705Z" fill="#BBD209"/>
<path d="M287.125 8.49231H260.074V14.8973H287.125V8.49231Z" fill="#5DB728"/>
<path d="M316.992 8.49231H291.498V14.8973H316.992V8.49231Z" fill="#5DB728"/>
<path d="M168.516 221.973C168.64 222.016 168.747 222.096 168.823 222.203C168.899 222.309 168.939 222.436 168.939 222.566C168.939 222.696 168.899 222.823 168.823 222.93C168.747 223.036 168.64 223.116 168.516 223.159C168.195 223.321 167.839 223.406 167.478 223.406C167.118 223.406 166.762 223.321 166.441 223.159C166.314 223.118 166.205 223.038 166.127 222.931C166.049 222.823 166.007 222.695 166.007 222.563C166.007 222.431 166.049 222.302 166.127 222.195C166.205 222.087 166.314 222.007 166.441 221.966C166.763 221.805 167.119 221.722 167.479 221.723C167.84 221.724 168.195 221.81 168.516 221.973Z" fill="white"/>
<path d="M170.649 216.84C170.741 216.869 170.821 216.927 170.877 217.004C170.934 217.081 170.965 217.174 170.965 217.269C170.965 217.365 170.934 217.458 170.877 217.535C170.821 217.612 170.741 217.669 170.649 217.698C170.417 217.814 170.16 217.875 169.9 217.875C169.639 217.875 169.383 217.814 169.15 217.698C168.732 217.455 168.732 217.076 169.15 216.84C169.382 216.721 169.639 216.658 169.9 216.658C170.161 216.658 170.418 216.721 170.649 216.84Z" fill="white"/>
<path d="M173.222 216.847L173.943 216.454C173.882 216.359 173.814 216.268 173.741 216.183H172.725C172.583 216.057 172.428 215.947 172.264 215.854C172.081 215.751 171.891 215.663 171.694 215.589L171.745 215.01L171.262 214.889L170.541 215.325C170.063 215.268 169.579 215.268 169.1 215.325L168.38 214.896C168.221 214.896 168.063 214.967 167.897 215.01L167.954 215.589C167.759 215.664 167.569 215.753 167.385 215.854C167.224 215.95 167.073 216.06 166.931 216.183H165.915C165.843 216.268 165.778 216.359 165.721 216.454L166.441 216.847C166.337 217.117 166.337 217.415 166.441 217.684L165.721 218.077C165.779 218.174 165.847 218.265 165.922 218.349H166.931C167.073 218.473 167.228 218.584 167.392 218.677C167.574 218.783 167.764 218.871 167.962 218.942L167.918 219.521C168.076 219.571 168.238 219.609 168.401 219.635L169.079 219.206C169.557 219.263 170.041 219.263 170.52 219.206L171.24 219.642L171.716 219.528L171.666 218.942C171.86 218.87 172.048 218.781 172.228 218.677C172.394 218.587 172.549 218.477 172.689 218.349H173.705C173.777 218.259 173.844 218.166 173.907 218.07L173.186 217.677C173.3 217.414 173.313 217.119 173.222 216.847ZM171.565 218.22C171.051 218.479 170.483 218.614 169.907 218.614C169.331 218.614 168.763 218.479 168.25 218.22C167.328 217.691 167.335 216.84 168.25 216.318C168.763 216.059 169.331 215.924 169.907 215.924C170.483 215.924 171.051 216.059 171.565 216.318C172.48 216.84 172.48 217.691 171.565 218.22Z" fill="white"/>
<path d="M172.083 221.987L173.121 221.444C173.042 221.322 172.948 221.187 172.847 221.058L171.406 221.101C171.208 220.933 170.996 220.782 170.772 220.65C170.517 220.509 170.252 220.387 169.979 220.286L170.044 219.478C169.824 219.414 169.6 219.361 169.374 219.321L168.43 219.921C167.762 219.839 167.087 219.839 166.419 219.921L165.475 219.321C165.252 219.361 165.03 219.414 164.812 219.478L164.885 220.286C164.614 220.389 164.352 220.51 164.099 220.65C163.875 220.782 163.663 220.933 163.465 221.101H162.024C161.921 221.218 161.829 221.345 161.75 221.48L162.795 222.023C162.655 222.396 162.655 222.807 162.795 223.181L161.75 223.724C161.836 223.858 161.93 223.987 162.031 224.11L163.472 224.067C163.673 224.235 163.887 224.386 164.114 224.518C164.365 224.661 164.627 224.783 164.899 224.882L164.834 225.69C165.05 225.754 165.281 225.804 165.504 225.847L166.441 225.247C167.111 225.333 167.789 225.333 168.459 225.247L169.403 225.847C169.629 225.81 169.853 225.758 170.073 225.69L169.993 224.882C170.269 224.785 170.534 224.663 170.786 224.518C171.01 224.389 171.22 224.238 171.413 224.067L172.854 224.11C172.957 223.99 173.049 223.861 173.128 223.724L172.083 223.131C172.227 222.763 172.227 222.355 172.083 221.987ZM169.792 223.889C169.08 224.25 168.292 224.438 167.493 224.438C166.694 224.438 165.906 224.25 165.194 223.889C163.919 223.174 163.912 221.98 165.194 221.244C165.905 220.884 166.691 220.696 167.489 220.696C168.287 220.696 169.074 220.884 169.785 221.244C171.038 221.98 171.053 223.131 169.792 223.889Z" fill="white"/>
</g>
<defs>
<linearGradient id="paint0_linear_0_1" x1="219.419" y1="209.292" x2="219.419" y2="134.469" gradientUnits="userSpaceOnUse">
<stop stop-color="#0173BA"/>
<stop offset="0.2" stop-color="#0278BE"/>
<stop offset="0.43" stop-color="#0685C9"/>
<stop offset="0.67" stop-color="#0C9CDB"/>
<stop offset="0.91" stop-color="#15BBF4"/>
<stop offset="1" stop-color="#19C8FF"/>
</linearGradient>
<linearGradient id="paint1_linear_0_1" x1="215.412" y1="146.671" x2="215.412" y2="338.128" gradientUnits="userSpaceOnUse">
<stop stop-color="#0173BA"/>
<stop offset="0.27" stop-color="#0276BC"/>
<stop offset="0.47" stop-color="#0580C4"/>
<stop offset="0.65" stop-color="#0990D1"/>
<stop offset="0.82" stop-color="#0FA6E4"/>
<stop offset="0.98" stop-color="#18C3FB"/>
<stop offset="1" stop-color="#19C8FF"/>
</linearGradient>
<linearGradient id="paint2_linear_0_1" x1="196.799" y1="230.136" x2="196.799" y2="152.483" gradientUnits="userSpaceOnUse">
<stop stop-color="#0173BA"/>
<stop offset="0.2" stop-color="#0278BE"/>
<stop offset="0.43" stop-color="#0685C9"/>
<stop offset="0.67" stop-color="#0C9CDB"/>
<stop offset="0.91" stop-color="#15BBF4"/>
<stop offset="1" stop-color="#19C8FF"/>
</linearGradient>
<linearGradient id="paint3_linear_0_1" x1="189.154" y1="160.954" x2="189.154" y2="337.155" gradientUnits="userSpaceOnUse">
<stop stop-color="#0173BA"/>
<stop offset="0.27" stop-color="#0276BC"/>
<stop offset="0.47" stop-color="#0580C4"/>
<stop offset="0.65" stop-color="#0990D1"/>
<stop offset="0.82" stop-color="#0FA6E4"/>
<stop offset="0.98" stop-color="#18C3FB"/>
<stop offset="1" stop-color="#19C8FF"/>
</linearGradient>
<linearGradient id="paint4_linear_0_1" x1="173.892" y1="236.684" x2="173.892" y2="164.078" gradientUnits="userSpaceOnUse">
<stop stop-color="#0173BA"/>
<stop offset="0.2" stop-color="#0278BE"/>
<stop offset="0.43" stop-color="#0685C9"/>
<stop offset="0.67" stop-color="#0C9CDB"/>
<stop offset="0.91" stop-color="#15BBF4"/>
<stop offset="1" stop-color="#19C8FF"/>
</linearGradient>
<linearGradient id="paint5_linear_0_1" x1="168.574" y1="173.85" x2="168.574" y2="349.658" gradientUnits="userSpaceOnUse">
<stop stop-color="#0173BA"/>
<stop offset="0.27" stop-color="#0276BC"/>
<stop offset="0.47" stop-color="#0580C4"/>
<stop offset="0.65" stop-color="#0990D1"/>
<stop offset="0.82" stop-color="#0FA6E4"/>
<stop offset="0.98" stop-color="#18C3FB"/>
<stop offset="1" stop-color="#19C8FF"/>
</linearGradient>
<linearGradient id="paint6_linear_0_1" x1="151.135" y1="240.773" x2="151.135" y2="184.565" gradientUnits="userSpaceOnUse">
<stop stop-color="#0173BA"/>
<stop offset="0.2" stop-color="#0278BE"/>
<stop offset="0.43" stop-color="#0685C9"/>
<stop offset="0.67" stop-color="#0C9CDB"/>
<stop offset="0.91" stop-color="#15BBF4"/>
<stop offset="1" stop-color="#19C8FF"/>
</linearGradient>
<linearGradient id="paint7_linear_0_1" x1="142.878" y1="187.031" x2="142.878" y2="343.861" gradientUnits="userSpaceOnUse">
<stop stop-color="#0173BA"/>
<stop offset="0.27" stop-color="#0276BC"/>
<stop offset="0.47" stop-color="#0580C4"/>
<stop offset="0.65" stop-color="#0990D1"/>
<stop offset="0.82" stop-color="#0FA6E4"/>
<stop offset="0.98" stop-color="#18C3FB"/>
<stop offset="1" stop-color="#19C8FF"/>
</linearGradient>
<linearGradient id="paint8_linear_0_1" x1="128.589" y1="243.089" x2="128.589" y2="196.153" gradientUnits="userSpaceOnUse">
<stop stop-color="#0173BA"/>
<stop offset="0.2" stop-color="#0278BE"/>
<stop offset="0.43" stop-color="#0685C9"/>
<stop offset="0.67" stop-color="#0C9CDB"/>
<stop offset="0.91" stop-color="#15BBF4"/>
<stop offset="1" stop-color="#19C8FF"/>
</linearGradient>
<linearGradient id="paint9_linear_0_1" x1="120.382" y1="198.776" x2="120.382" y2="261.711" gradientUnits="userSpaceOnUse">
<stop stop-color="#0173BA"/>
<stop offset="0.27" stop-color="#0276BC"/>
<stop offset="0.47" stop-color="#0580C4"/>
<stop offset="0.65" stop-color="#0990D1"/>
<stop offset="0.82" stop-color="#0FA6E4"/>
<stop offset="0.98" stop-color="#18C3FB"/>
<stop offset="1" stop-color="#19C8FF"/>
</linearGradient>
<linearGradient id="paint10_linear_0_1" x1="145.63" y1="259.188" x2="152.843" y2="259.188" gradientUnits="userSpaceOnUse">
<stop stop-color="#231F20"/>
<stop offset="1" stop-color="#58595B"/>
</linearGradient>
<linearGradient id="paint11_linear_0_1" x1="113.406" y1="219.321" x2="105.205" y2="231.998" gradientUnits="userSpaceOnUse">
<stop stop-color="#231F20"/>
<stop offset="1" stop-color="#58595B"/>
</linearGradient>
<linearGradient id="paint12_linear_0_1" x1="108.441" y1="226.712" x2="116.224" y2="215.267" gradientUnits="userSpaceOnUse">
<stop stop-color="#231F20"/>
<stop offset="1" stop-color="#58595B"/>
</linearGradient>
<linearGradient id="paint13_linear_0_1" x1="213.488" y1="32.1965" x2="235.697" y2="32.1965" gradientUnits="userSpaceOnUse">
<stop stop-color="#029D38"/>
<stop offset="1" stop-color="#7EC022"/>
</linearGradient>
<linearGradient id="paint14_linear_0_1" x1="205.144" y1="41.7682" x2="231.519" y2="47.6764" gradientUnits="userSpaceOnUse">
<stop stop-color="#029D38"/>
<stop offset="1" stop-color="#7EC022"/>
</linearGradient>
<linearGradient id="paint15_linear_0_1" x1="227.763" y1="162.705" x2="227.763" y2="28.0504" gradientUnits="userSpaceOnUse">
<stop stop-color="#029D38"/>
<stop offset="1" stop-color="#7EC022"/>
</linearGradient>
<linearGradient id="paint16_linear_0_1" x1="180.334" y1="83.6008" x2="202.607" y2="83.6008" gradientUnits="userSpaceOnUse">
<stop stop-color="#91C518"/>
<stop offset="1" stop-color="#D4D900"/>
</linearGradient>
<linearGradient id="paint17_linear_0_1" x1="186.163" y1="67.9529" x2="212.983" y2="67.9529" gradientUnits="userSpaceOnUse">
<stop stop-color="#91C518"/>
<stop offset="1" stop-color="#D4D900"/>
</linearGradient>
<linearGradient id="paint18_linear_0_1" x1="205.029" y1="175.744" x2="205.029" y2="64.4216" gradientUnits="userSpaceOnUse">
<stop stop-color="#91C518"/>
<stop offset="1" stop-color="#D4D900"/>
</linearGradient>
<linearGradient id="paint19_linear_0_1" x1="163.875" y1="122.889" x2="212.139" y2="101.762" gradientUnits="userSpaceOnUse">
<stop stop-color="#F7A319"/>
<stop offset="1" stop-color="#FDDB5F"/>
</linearGradient>
<linearGradient id="paint20_linear_0_1" x1="157.643" y1="128.8" x2="183" y2="128.8" gradientUnits="userSpaceOnUse">
<stop stop-color="#F7A319"/>
<stop offset="1" stop-color="#FDDB5F"/>
</linearGradient>
<linearGradient id="paint21_linear_0_1" x1="182.293" y1="188.79" x2="182.293" y2="112.109" gradientUnits="userSpaceOnUse">
<stop stop-color="#F7A319"/>
<stop offset="1" stop-color="#FDDB5F"/>
</linearGradient>
<linearGradient id="paint22_linear_0_1" x1="134.872" y1="141.36" x2="167.579" y2="141.36" gradientUnits="userSpaceOnUse">
<stop stop-color="#FF6411"/>
<stop offset="1" stop-color="#FCA70F"/>
</linearGradient>
<linearGradient id="paint23_linear_0_1" x1="159.523" y1="201.836" x2="159.523" y2="140.753" gradientUnits="userSpaceOnUse">
<stop stop-color="#FF6411"/>
<stop offset="1" stop-color="#FCA70F"/>
</linearGradient>
<linearGradient id="paint24_linear_0_1" x1="113.457" y1="189.562" x2="160.255" y2="168.438" gradientUnits="userSpaceOnUse">
<stop stop-color="#A42538"/>
<stop offset="1" stop-color="#FF4C1B"/>
</linearGradient>
<linearGradient id="paint25_linear_0_1" x1="136.818" y1="214.882" x2="136.818" y2="165.222" gradientUnits="userSpaceOnUse">
<stop stop-color="#A42538"/>
<stop offset="1" stop-color="#FF4C1B"/>
</linearGradient>
<linearGradient id="paint26_linear_0_1" x1="227.842" y1="162.705" x2="227.842" y2="87.8828" gradientUnits="userSpaceOnUse">
<stop stop-color="#029D38"/>
<stop offset="1" stop-color="#7EC022"/>
</linearGradient>
<linearGradient id="paint27_linear_0_1" x1="205.086" y1="175.744" x2="205.086" y2="115.447" gradientUnits="userSpaceOnUse">
<stop stop-color="#91C518"/>
<stop offset="1" stop-color="#D4D900"/>
</linearGradient>
<linearGradient id="paint28_linear_0_1" x1="182.33" y1="188.79" x2="182.33" y2="143.004" gradientUnits="userSpaceOnUse">
<stop stop-color="#F7A319"/>
<stop offset="1" stop-color="#FDDB5F"/>
</linearGradient>
<linearGradient id="paint29_linear_0_1" x1="159.581" y1="201.836" x2="159.581" y2="170.569" gradientUnits="userSpaceOnUse">
<stop stop-color="#FF6411"/>
<stop offset="1" stop-color="#FCA70F"/>
</linearGradient>
<linearGradient id="paint30_linear_0_1" x1="139.123" y1="212.237" x2="139.123" y2="198.126" gradientUnits="userSpaceOnUse">
<stop stop-color="#A42538"/>
<stop offset="1" stop-color="#FF4C1B"/>
</linearGradient>
<linearGradient id="paint31_linear_0_1" x1="160.05" y1="222.502" x2="316.993" y2="222.502" gradientUnits="userSpaceOnUse">
<stop stop-color="#FF6411"/>
<stop offset="1" stop-color="#FCA70F"/>
</linearGradient>
<linearGradient id="paint32_linear_0_1" x1="227.403" y1="59.4534" x2="316.993" y2="59.4534" gradientUnits="userSpaceOnUse">
<stop stop-color="#029D38"/>
<stop offset="1" stop-color="#7EC022"/>
</linearGradient>
<linearGradient id="paint33_linear_0_1" x1="203.299" y1="122.924" x2="316.993" y2="122.924" gradientUnits="userSpaceOnUse">
<stop stop-color="#91C518"/>
<stop offset="1" stop-color="#D4D900"/>
</linearGradient>
<linearGradient id="paint34_linear_0_1" x1="181.156" y1="186.402" x2="316.993" y2="186.402" gradientUnits="userSpaceOnUse">
<stop stop-color="#F7A319"/>
<stop offset="1" stop-color="#FDDB5F"/>
</linearGradient>
<linearGradient id="paint35_linear_0_1" x1="22" y1="235.09" x2="142.352" y2="235.09" gradientUnits="userSpaceOnUse">
<stop stop-color="#A42538"/>
<stop offset="1" stop-color="#FF4C1B"/>
</linearGradient>
<clipPath id="clip0_0_1">
<rect width="295" height="266" fill="white" transform="translate(22)"/>
</clipPath>
</defs>
</svg>
