<svg width="59" height="59" viewBox="0 0 59 59" fill="none" xmlns="http://www.w3.org/2000/svg">
<g clip-path="url(#clip0_657_637)">
<path d="M1.01758 29.6263C1.08882 22.1529 4.10757 15.0099 9.41738 9.75043C14.7272 4.49099 21.8987 1.54047 29.3724 1.54047C36.846 1.54047 44.0175 4.49099 49.3273 9.75043C54.6372 15.0099 57.6559 22.1529 57.7271 29.6263C57.6559 37.0996 54.6372 44.2426 49.3273 49.5021C44.0175 54.7615 36.846 57.712 29.3724 57.712C21.8987 57.712 14.7272 54.7615 9.41738 49.5021C4.10757 44.2426 1.08882 37.0996 1.01758 29.6263ZM27.2713 30.789L23.1696 35.6198C19.0654 40.4506 19.0654 40.4506 20.0058 40.4506C20.9024 40.4506 21.1136 40.2573 24.5145 36.2845C26.4752 33.9915 28.1473 32.1854 28.2297 32.2679C28.3147 32.3503 29.6313 34.2311 33.9313 40.466L40.1379 40.3217L31.6564 27.991L35.302 23.7554C39.566 18.8009 39.5608 18.8086 38.4658 18.8086C37.7367 18.8086 37.2987 19.2183 30.8087 26.744L28.0674 22.7686C25.3261 18.7932 25.3261 18.7932 19.1247 18.9375L27.2713 30.789Z" fill="#F2F4F7" fill-opacity="0.988235"/>
<path d="M27.2716 30.7882L19.125 18.9367C25.3264 18.7924 25.3264 18.7924 28.0678 22.7678L30.8091 26.7432C37.2991 19.2175 37.7371 18.8079 38.4662 18.8079C39.5612 18.8079 39.5663 18.8001 35.3023 23.7546L31.6567 27.9902L40.1383 40.321L33.9317 40.4652C29.6316 34.2303 28.3151 32.3495 28.2301 32.2671C28.1476 32.1846 26.4755 33.9907 24.5149 36.2837C21.114 40.2566 20.9027 40.4498 20.0061 40.4498C19.0657 40.4498 19.0657 40.4498 23.17 35.619L27.2716 30.7882ZM37.3583 39.1616L24.7339 20.3537H21.8998L34.2666 38.6463L37.3583 39.1616Z" fill="#191919"/>
<path d="M37.3589 39.1616L34.2672 38.6463L21.9004 20.3538H24.7345L37.3589 39.1616Z" fill="#F2F4F7" fill-opacity="0.988235"/>
</g>
<defs>
<clipPath id="clip0_657_637">
<rect width="59" height="59" fill="white"/>
</clipPath>
</defs>
</svg>
